<svg width="496" height="175" viewBox="0 0 496 175" fill="none" xmlns="http://www.w3.org/2000/svg">
<g filter="url(#filter0_d)">
<rect x="34" y="33" width="450" height="120" rx="60" fill="url(#paint0_linear)"/>
</g>
<path d="M137.852 86.684C137.852 88.0467 137.423 89.1293 136.564 89.932C135.706 90.716 134.558 91.22 133.12 91.444V91.556C134.8 91.78 136.079 92.3027 136.956 93.124C137.834 93.9453 138.272 95.0187 138.272 96.344C138.272 98.0987 137.6 99.5267 136.256 100.628C134.912 101.729 132.896 102.28 130.208 102.28C129.126 102.28 128.09 102.196 127.1 102.028C126.13 101.879 125.224 101.599 124.384 101.188V98.892C125.262 99.3027 126.214 99.6293 127.24 99.872C128.286 100.096 129.266 100.208 130.18 100.208C131.972 100.208 133.326 99.872 134.24 99.2C135.174 98.528 135.64 97.576 135.64 96.344C135.64 95.0747 135.099 94.1507 134.016 93.572C132.934 92.9933 131.422 92.704 129.48 92.704H126.624V90.604H129.34C131.319 90.604 132.794 90.2773 133.764 89.624C134.754 88.952 135.248 88.056 135.248 86.936C135.248 85.928 134.875 85.1533 134.128 84.612C133.382 84.0707 132.411 83.8 131.216 83.8C129.966 83.8 128.92 83.9587 128.08 84.276C127.259 84.5933 126.456 85.004 125.672 85.508L124.468 83.8C125.252 83.2213 126.214 82.736 127.352 82.344C128.51 81.9333 129.807 81.728 131.244 81.728C133.41 81.728 135.052 82.1947 136.172 83.128C137.292 84.0613 137.852 85.2467 137.852 86.684ZM147.845 86.74C149.675 86.74 151.028 87.1413 151.905 87.944C152.783 88.7467 153.221 90.0253 153.221 91.78V102H151.429L150.953 99.872H150.841C150.188 100.693 149.497 101.3 148.769 101.692C148.06 102.084 147.071 102.28 145.801 102.28C144.439 102.28 143.309 101.925 142.413 101.216C141.517 100.488 141.069 99.3587 141.069 97.828C141.069 96.3347 141.657 95.1867 142.833 94.384C144.009 93.5627 145.82 93.1147 148.265 93.04L150.813 92.956V92.06C150.813 90.8093 150.543 89.9413 150.001 89.456C149.46 88.9707 148.695 88.728 147.705 88.728C146.921 88.728 146.175 88.8493 145.465 89.092C144.756 89.316 144.093 89.5773 143.477 89.876L142.721 88.028C143.375 87.6733 144.149 87.3747 145.045 87.132C145.941 86.8707 146.875 86.74 147.845 86.74ZM150.785 94.664L148.573 94.748C146.707 94.8227 145.409 95.1213 144.681 95.644C143.972 96.1667 143.617 96.904 143.617 97.856C143.617 98.696 143.869 99.312 144.373 99.704C144.896 100.096 145.559 100.292 146.361 100.292C147.631 100.292 148.685 99.9467 149.525 99.256C150.365 98.5467 150.785 97.464 150.785 96.008V94.664ZM166.733 86.992H169.421L163.009 94.216L169.953 102H167.097L160.321 94.384V102H157.857V86.992H160.321V94.272L166.733 86.992ZM178.361 86.74C180.19 86.74 181.544 87.1413 182.421 87.944C183.298 88.7467 183.737 90.0253 183.737 91.78V102H181.945L181.469 99.872H181.357C180.704 100.693 180.013 101.3 179.285 101.692C178.576 102.084 177.586 102.28 176.317 102.28C174.954 102.28 173.825 101.925 172.929 101.216C172.033 100.488 171.585 99.3587 171.585 97.828C171.585 96.3347 172.173 95.1867 173.349 94.384C174.525 93.5627 176.336 93.1147 178.781 93.04L181.329 92.956V92.06C181.329 90.8093 181.058 89.9413 180.517 89.456C179.976 88.9707 179.21 88.728 178.221 88.728C177.437 88.728 176.69 88.8493 175.981 89.092C175.272 89.316 174.609 89.5773 173.993 89.876L173.237 88.028C173.89 87.6733 174.665 87.3747 175.561 87.132C176.457 86.8707 177.39 86.74 178.361 86.74ZM181.301 94.664L179.089 94.748C177.222 94.8227 175.925 95.1213 175.197 95.644C174.488 96.1667 174.133 96.904 174.133 97.856C174.133 98.696 174.385 99.312 174.889 99.704C175.412 100.096 176.074 100.292 176.877 100.292C178.146 100.292 179.201 99.9467 180.041 99.256C180.881 98.5467 181.301 97.464 181.301 96.008V94.664ZM192.32 86.712C194.038 86.712 195.4 87.0573 196.408 87.748C197.435 88.42 197.948 89.3907 197.948 90.66C197.948 91.5747 197.696 92.3027 197.192 92.844C196.688 93.3667 195.998 93.7493 195.12 93.992V94.104C195.718 94.272 196.268 94.5053 196.772 94.804C197.276 95.1027 197.678 95.4947 197.976 95.98C198.294 96.4653 198.452 97.0907 198.452 97.856C198.452 99.1067 197.93 100.161 196.884 101.02C195.858 101.86 194.243 102.28 192.04 102.28C190.958 102.28 189.978 102.187 189.1 102C188.223 101.832 187.495 101.599 186.916 101.3V99.088C187.551 99.3867 188.298 99.6573 189.156 99.9C190.034 100.143 190.986 100.264 192.012 100.264C193.132 100.264 194.075 100.077 194.84 99.704C195.624 99.312 196.016 98.6493 196.016 97.716C196.016 96.036 194.588 95.196 191.732 95.196H189.716V93.18H191.34C192.628 93.18 193.655 93.012 194.42 92.676C195.204 92.3213 195.596 91.724 195.596 90.884C195.596 90.1747 195.298 89.6427 194.7 89.288C194.122 88.9333 193.282 88.756 192.18 88.756C191.359 88.756 190.631 88.84 189.996 89.008C189.38 89.1573 188.699 89.3907 187.952 89.708L187.084 87.748C188.652 87.0573 190.398 86.712 192.32 86.712ZM207.783 86.74C209.612 86.74 210.965 87.1413 211.843 87.944C212.72 88.7467 213.159 90.0253 213.159 91.78V102H211.367L210.891 99.872H210.779C210.125 100.693 209.435 101.3 208.707 101.692C207.997 102.084 207.008 102.28 205.739 102.28C204.376 102.28 203.247 101.925 202.351 101.216C201.455 100.488 201.007 99.3587 201.007 97.828C201.007 96.3347 201.595 95.1867 202.771 94.384C203.947 93.5627 205.757 93.1147 208.203 93.04L210.751 92.956V92.06C210.751 90.8093 210.48 89.9413 209.939 89.456C209.397 88.9707 208.632 88.728 207.643 88.728C206.859 88.728 206.112 88.8493 205.403 89.092C204.693 89.316 204.031 89.5773 203.415 89.876L202.659 88.028C203.312 87.6733 204.087 87.3747 204.983 87.132C205.879 86.8707 206.812 86.74 207.783 86.74ZM210.723 94.664L208.511 94.748C206.644 94.8227 205.347 95.1213 204.619 95.644C203.909 96.1667 203.555 96.904 203.555 97.856C203.555 98.696 203.807 99.312 204.311 99.704C204.833 100.096 205.496 100.292 206.299 100.292C207.568 100.292 208.623 99.9467 209.463 99.256C210.303 98.5467 210.723 97.464 210.723 96.008V94.664ZM228.154 89.064H223.254V102H220.818V89.064H215.974V86.992H228.154V89.064ZM233.574 93.152H238.026C241.928 93.152 243.878 94.5707 243.878 97.408C243.878 98.808 243.402 99.928 242.45 100.768C241.498 101.589 239.986 102 237.914 102H231.11V86.992H233.574V93.152ZM241.414 97.548C241.414 96.6333 241.088 96.0173 240.434 95.7C239.8 95.364 238.904 95.196 237.746 95.196H233.574V100.012H237.802C238.848 100.012 239.706 99.8253 240.378 99.452C241.069 99.0787 241.414 98.444 241.414 97.548ZM267.619 94.468C267.619 96.9507 266.985 98.8733 265.715 100.236C264.465 101.599 262.766 102.28 260.619 102.28C259.294 102.28 258.109 101.981 257.063 101.384C256.037 100.768 255.225 99.8813 254.627 98.724C254.03 97.548 253.731 96.1293 253.731 94.468C253.731 91.9853 254.357 90.072 255.607 88.728C256.858 87.384 258.557 86.712 260.703 86.712C262.066 86.712 263.261 87.02 264.287 87.636C265.333 88.2333 266.145 89.1107 266.723 90.268C267.321 91.4067 267.619 92.8067 267.619 94.468ZM256.279 94.468C256.279 96.2413 256.625 97.6507 257.315 98.696C258.025 99.7227 259.145 100.236 260.675 100.236C262.187 100.236 263.298 99.7227 264.007 98.696C264.717 97.6507 265.071 96.2413 265.071 94.468C265.071 92.6947 264.717 91.304 264.007 90.296C263.298 89.288 262.178 88.784 260.647 88.784C259.117 88.784 258.006 89.288 257.315 90.296C256.625 91.304 256.279 92.6947 256.279 94.468ZM270.741 92.984C270.741 89.6987 271.235 87.1413 272.225 85.312C273.214 83.464 274.81 82.3067 277.013 81.84C278.226 81.5787 279.411 81.3453 280.569 81.14C281.726 80.9347 282.809 80.748 283.817 80.58L284.237 82.736C283.583 82.8293 282.846 82.9507 282.025 83.1C281.203 83.2307 280.391 83.3707 279.589 83.52C278.786 83.6507 278.095 83.7813 277.517 83.912C276.303 84.1733 275.342 84.808 274.633 85.816C273.923 86.8053 273.522 88.3547 273.429 90.464H273.597C273.858 90.1093 274.213 89.7453 274.661 89.372C275.127 88.9987 275.678 88.6813 276.313 88.42C276.966 88.1587 277.703 88.028 278.525 88.028C280.466 88.028 281.931 88.6533 282.921 89.904C283.91 91.1547 284.405 92.7787 284.405 94.776C284.405 96.4373 284.115 97.828 283.537 98.948C282.958 100.068 282.155 100.908 281.129 101.468C280.102 102.009 278.907 102.28 277.545 102.28C275.473 102.28 273.821 101.487 272.589 99.9C271.357 98.3133 270.741 96.008 270.741 92.984ZM277.741 100.236C278.954 100.236 279.934 99.844 280.681 99.06C281.427 98.276 281.801 96.932 281.801 95.028C281.801 93.4973 281.511 92.2933 280.933 91.416C280.373 90.52 279.439 90.072 278.133 90.072C277.311 90.072 276.565 90.2587 275.893 90.632C275.221 90.9867 274.661 91.3973 274.213 91.864C273.765 92.3307 273.447 92.7227 273.261 93.04C273.261 93.9547 273.326 94.8413 273.457 95.7C273.587 96.5587 273.811 97.3333 274.129 98.024C274.465 98.696 274.922 99.2373 275.501 99.648C276.098 100.04 276.845 100.236 277.741 100.236ZM295.426 86.712C297.274 86.712 298.758 87.356 299.878 88.644C301.017 89.932 301.586 91.8733 301.586 94.468C301.586 97.0253 301.017 98.9667 299.878 100.292C298.758 101.617 297.265 102.28 295.398 102.28C294.241 102.28 293.28 102.065 292.514 101.636C291.768 101.188 291.18 100.675 290.75 100.096H290.582C290.62 100.413 290.657 100.815 290.694 101.3C290.732 101.785 290.75 102.205 290.75 102.56V108.72H288.286V86.992H290.302L290.638 89.036H290.75C291.198 88.3827 291.786 87.832 292.514 87.384C293.242 86.936 294.213 86.712 295.426 86.712ZM294.978 88.784C293.448 88.784 292.365 89.2133 291.73 90.072C291.114 90.9307 290.788 92.2373 290.75 93.992V94.468C290.75 96.316 291.049 97.744 291.646 98.752C292.262 99.7413 293.392 100.236 295.034 100.236C295.949 100.236 296.696 99.984 297.274 99.48C297.872 98.976 298.31 98.2947 298.59 97.436C298.889 96.5587 299.038 95.56 299.038 94.44C299.038 92.7227 298.702 91.3507 298.03 90.324C297.377 89.2973 296.36 88.784 294.978 88.784ZM311.197 86.74C313.026 86.74 314.379 87.1413 315.257 87.944C316.134 88.7467 316.573 90.0253 316.573 91.78V102H314.781L314.305 99.872H314.193C313.539 100.693 312.849 101.3 312.121 101.692C311.411 102.084 310.422 102.28 309.153 102.28C307.79 102.28 306.661 101.925 305.765 101.216C304.869 100.488 304.421 99.3587 304.421 97.828C304.421 96.3347 305.009 95.1867 306.185 94.384C307.361 93.5627 309.171 93.1147 311.617 93.04L314.165 92.956V92.06C314.165 90.8093 313.894 89.9413 313.353 89.456C312.811 88.9707 312.046 88.728 311.057 88.728C310.273 88.728 309.526 88.8493 308.817 89.092C308.107 89.316 307.445 89.5773 306.829 89.876L306.073 88.028C306.726 87.6733 307.501 87.3747 308.397 87.132C309.293 86.8707 310.226 86.74 311.197 86.74ZM314.137 94.664L311.925 94.748C310.058 94.8227 308.761 95.1213 308.033 95.644C307.323 96.1667 306.969 96.904 306.969 97.856C306.969 98.696 307.221 99.312 307.725 99.704C308.247 100.096 308.91 100.292 309.713 100.292C310.982 100.292 312.037 99.9467 312.877 99.256C313.717 98.5467 314.137 97.464 314.137 96.008V94.664ZM320.424 92.984C320.424 89.6987 320.919 87.1413 321.908 85.312C322.897 83.464 324.493 82.3067 326.696 81.84C327.909 81.5787 329.095 81.3453 330.252 81.14C331.409 80.9347 332.492 80.748 333.5 80.58L333.92 82.736C333.267 82.8293 332.529 82.9507 331.708 83.1C330.887 83.2307 330.075 83.3707 329.272 83.52C328.469 83.6507 327.779 83.7813 327.2 83.912C325.987 84.1733 325.025 84.808 324.316 85.816C323.607 86.8053 323.205 88.3547 323.112 90.464H323.28C323.541 90.1093 323.896 89.7453 324.344 89.372C324.811 88.9987 325.361 88.6813 325.996 88.42C326.649 88.1587 327.387 88.028 328.208 88.028C330.149 88.028 331.615 88.6533 332.604 89.904C333.593 91.1547 334.088 92.7787 334.088 94.776C334.088 96.4373 333.799 97.828 333.22 98.948C332.641 100.068 331.839 100.908 330.812 101.468C329.785 102.009 328.591 102.28 327.228 102.28C325.156 102.28 323.504 101.487 322.272 99.9C321.04 98.3133 320.424 96.008 320.424 92.984ZM327.424 100.236C328.637 100.236 329.617 99.844 330.364 99.06C331.111 98.276 331.484 96.932 331.484 95.028C331.484 93.4973 331.195 92.2933 330.616 91.416C330.056 90.52 329.123 90.072 327.816 90.072C326.995 90.072 326.248 90.2587 325.576 90.632C324.904 90.9867 324.344 91.3973 323.896 91.864C323.448 92.3307 323.131 92.7227 322.944 93.04C322.944 93.9547 323.009 94.8413 323.14 95.7C323.271 96.5587 323.495 97.3333 323.812 98.024C324.148 98.696 324.605 99.2373 325.184 99.648C325.781 100.04 326.528 100.236 327.424 100.236ZM351.018 94.468C351.018 96.9507 350.383 98.8733 349.114 100.236C347.863 101.599 346.165 102.28 344.018 102.28C342.693 102.28 341.507 101.981 340.462 101.384C339.435 100.768 338.623 99.8813 338.026 98.724C337.429 97.548 337.13 96.1293 337.13 94.468C337.13 91.9853 337.755 90.072 339.006 88.728C340.257 87.384 341.955 86.712 344.102 86.712C345.465 86.712 346.659 87.02 347.686 87.636C348.731 88.2333 349.543 89.1107 350.122 90.268C350.719 91.4067 351.018 92.8067 351.018 94.468ZM339.678 94.468C339.678 96.2413 340.023 97.6507 340.714 98.696C341.423 99.7227 342.543 100.236 344.074 100.236C345.586 100.236 346.697 99.7227 347.406 98.696C348.115 97.6507 348.47 96.2413 348.47 94.468C348.47 92.6947 348.115 91.304 347.406 90.296C346.697 89.288 345.577 88.784 344.046 88.784C342.515 88.784 341.405 89.288 340.714 90.296C340.023 91.304 339.678 92.6947 339.678 94.468ZM365.01 89.064H360.11V102H357.674V89.064H352.83V86.992H365.01V89.064ZM376.842 86.992H379.53L373.118 94.216L380.062 102H377.206L370.43 94.384V102H367.966V86.992H370.43V94.272L376.842 86.992ZM380.434 86.992H383.066L386.314 95.532C386.594 96.2787 386.846 96.9973 387.07 97.688C387.294 98.36 387.462 99.004 387.574 99.62H387.686C387.798 99.1533 387.976 98.5467 388.218 97.8C388.461 97.0347 388.713 96.2693 388.974 95.504L392.026 86.992H394.686L388.218 104.072C387.696 105.491 387.014 106.62 386.174 107.46C385.353 108.3 384.214 108.72 382.758 108.72C382.31 108.72 381.918 108.692 381.582 108.636C381.246 108.599 380.957 108.552 380.714 108.496V106.536C380.92 106.573 381.162 106.611 381.442 106.648C381.741 106.685 382.049 106.704 382.366 106.704C383.225 106.704 383.916 106.461 384.438 105.976C384.98 105.491 385.4 104.847 385.698 104.044L386.482 102.056L380.434 86.992Z" fill="white"/>
<defs>
<filter id="filter0_d" x="22" y="31" width="474" height="144" filterUnits="userSpaceOnUse" color-interpolation-filters="sRGB">
<feFlood flood-opacity="0" result="BackgroundImageFix"/>
<feColorMatrix in="SourceAlpha" type="matrix" values="0 0 0 0 0 0 0 0 0 0 0 0 0 0 0 0 0 0 127 0"/>
<feOffset dy="10"/>
<feGaussianBlur stdDeviation="6"/>
<feColorMatrix type="matrix" values="0 0 0 0 1 0 0 0 0 0.313726 0 0 0 0 0.0196078 0 0 0 0.35 0"/>
<feBlend mode="normal" in2="BackgroundImageFix" result="effect1_dropShadow"/>
<feBlend mode="normal" in="SourceGraphic" in2="effect1_dropShadow" result="shape"/>
</filter>
<linearGradient id="paint0_linear" x1="34" y1="33" x2="484" y2="153" gradientUnits="userSpaceOnUse">
<stop stop-color="#FF9B04"/>
<stop offset="1" stop-color="#FF0000" stop-opacity="0.5"/>
</linearGradient>
</defs>
</svg>
