<?xml version="1.0" encoding="UTF-8"?> <svg xmlns="http://www.w3.org/2000/svg" xmlns:xlink="http://www.w3.org/1999/xlink" width="60" height="60" viewBox="0 0 60 60"> <g id="Canvas" fill="none"> <g id="eco"> <g id="Group"> <g id="Group_2"> <g id="Group_3"> <g id="Vector"> <path d="M 17.4244 0.877977L 17.4198 0.861981C 17.3728 0.667568 17.2286 0.507958 17.0347 0.443681C 16.9627 0.419775 15.2435 -0.139325 12.7889 0.0328816C 10.5291 0.191319 7.18883 1.02663 4.10775 4.1066C 1.02674 7.18663 0.191205 10.5258 0.0328315 12.7846C -0.139257 15.2385 0.420032 16.9569 0.443946 17.0289C 0.502208 17.2044 0.640008 17.3421 0.815555 17.4004C 0.877978 17.4211 2.17849 17.8442 4.12334 17.8442C 4.42151 17.8442 4.73498 17.8342 5.06128 17.8113C 7.32088 17.653 10.6611 16.8177 13.7422 13.7378C 19.1937 8.28801 17.766 2.06924 17.4244 0.877977ZM 11.4049 1.3936C 11.8683 1.30419 12.3402 1.24114 12.8206 1.20546C 14.0079 1.11733 15.0137 1.22022 15.6986 1.33682C 15.6693 1.35692 15.6413 1.37954 15.6153 1.40549L 11.4049 5.61445L 11.4049 1.3936ZM 10.2327 1.68294L 10.2327 6.78632L 6.30388 10.7138L 6.30388 3.78797C 6.30388 3.76881 6.30282 3.74994 6.30101 3.73125C 7.51683 2.7903 8.83059 2.1061 10.2327 1.68294ZM 1.20217 12.8665C 1.41224 9.87086 2.66868 7.20239 4.93666 4.93523C 5.00131 4.87066 5.06632 4.80709 5.13161 4.7441L 5.13161 11.8596C 5.13161 11.868 5.13249 11.876 5.13284 11.8843L 1.33387 15.682C 1.21987 15.0099 1.12058 14.0305 1.20217 12.8665ZM 5.02945 16.6387C 3.8495 16.7262 2.84874 16.6251 2.16407 16.5093L 3.99504 14.679C 3.99703 14.679 3.99891 14.6793 4.0009 14.6793L 10.7587 14.6793C 9.02325 15.8271 7.10536 16.4846 5.02945 16.6387ZM 12.9133 12.9091C 12.7052 13.1171 12.4936 13.3165 12.2788 13.5075L 5.16701 13.5075L 8.56894 10.1067L 15.0822 10.1067C 14.5435 11.0413 13.8362 11.9864 12.9133 12.9091ZM 15.6767 8.93483L 9.74115 8.93483L 16.4442 2.23407C 16.4692 2.20905 16.4909 2.18209 16.5105 2.15409C 16.7536 3.56777 16.9072 6.13775 15.6767 8.93483Z" transform="translate(24.3047 24.3117) scale(2)" fill="url(#paint0_linear)"></path> </g> </g> </g> <g id="Group_4"> <g id="Group_5"> <g id="Vector_2"> <path d="M 13.7396 4.10656C 10.6585 1.02659 7.3182 0.191281 5.05848 0.0328438C 2.60392 -0.139246 0.884615 0.419796 0.812638 0.443643C 0.618744 0.507979 0.474555 0.667588 0.427548 0.862001L 0.422976 0.877997C 0.0813767 2.06932 -1.34639 8.28809 4.10519 13.7378C 5.83475 15.4668 7.81571 16.6686 9.9929 17.3097C 10.0482 17.326 10.104 17.3338 10.1588 17.3338C 10.412 17.3338 10.6456 17.1684 10.7208 16.9133C 10.8123 16.6029 10.6347 16.2771 10.3242 16.1857C 8.33713 15.6005 6.52363 14.4981 4.93416 12.9092C 3.54871 11.5242 2.648 10.0885 2.07623 8.71395L 7.88517 8.71395L 10.7142 11.542C 10.8287 11.6565 10.9787 11.7136 11.1287 11.7136C 11.2786 11.7136 11.4287 11.6565 11.5431 11.542C 11.772 11.3132 11.772 10.9422 11.5431 10.7133L 10.8969 10.0675L 10.8969 3.25871C 11.599 3.7366 12.2708 4.2957 12.9106 4.93525C 13.1395 5.16406 13.5106 5.16406 13.7396 4.93525C 13.9685 4.70644 13.9685 4.33543 13.7396 4.10656ZM 4.97648 1.2019C 5.23314 1.21989 5.48729 1.24614 5.73909 1.27948L 5.73909 4.9114L 2.19849 1.372C 2.18501 1.35852 2.17089 1.34593 2.15647 1.33403C 2.829 1.21983 3.81024 1.12005 4.97648 1.2019ZM 1.66001 7.54214L 1.66001 7.54208C 0.996684 5.30837 1.13413 3.33875 1.33535 2.16284C 1.3462 2.17573 1.35739 2.1885 1.36952 2.20069L 6.71278 7.54219L 1.66001 7.54219L 1.66001 7.54214ZM 9.72469 8.89565L 6.9113 6.08322L 6.9113 1.49346C 7.89073 1.7238 8.82949 2.07688 9.72469 2.5512L 9.72469 8.89565Z" transform="translate(0 24.3117) scale(2)" fill="url(#paint1_linear)"></path> </g> </g> </g> <g id="Group_6"> <g id="Group_7"> <g id="Vector_3"> <path d="M 4.12785 1.70173C 2.9952 1.36816 1.91988 0.833491 0.931716 0.112673C 0.670183 -0.0781079 0.303557 -0.0208026 0.112712 0.240583C -0.0781334 0.501969 -0.0208096 0.86853 0.240665 1.05931C 1.33791 1.85982 2.53427 2.45413 3.79651 2.82585C 3.85178 2.84214 3.90758 2.84987 3.96244 2.84987C 4.21565 2.84987 4.44922 2.68452 4.52443 2.4294C 4.61592 2.11892 4.43838 1.79314 4.12785 1.70173Z" transform="translate(13.875 49.284) scale(2)" fill="url(#paint2_linear)"></path> </g> </g> </g> <g id="Group_8"> <g id="Group_9"> <g id="Vector_4"> <path d="M 1.0011 0.173064L 0.999052 0.171013C 0.770167 -0.0576779 0.40014 -0.0566815 0.171138 0.172068C -0.0577477 0.400876 -0.0566928 0.772945 0.172193 1.00175C 0.286664 1.11619 0.436656 1.17337 0.586648 1.17337C 0.736639 1.17337 0.88669 1.11619 1.0011 1.00175C 1.22999 0.772945 1.22999 0.40193 1.0011 0.173064Z" transform="translate(10.918 46.7427) scale(2)" fill="url(#paint3_linear)"></path> </g> </g> </g> <g id="Group_10"> <g id="Group_11"> <g id="Vector_5"> <path d="M 4.34595 7.44127L 1.17221 7.44127L 1.17221 4.8925L 3.35849 4.8925C 3.68221 4.8925 3.94462 4.63018 3.94462 4.30657C 3.94462 3.98296 3.68221 3.72063 3.35849 3.72063L 1.17221 3.72063L 1.17221 1.17187L 4.34589 1.17187C 4.66961 1.17187 4.93202 0.909548 4.93202 0.585936C 4.93202 0.262323 4.66961 0 4.34589 0L 0.586134 0C 0.262412 0 3.04086e-08 0.262323 3.04086e-08 0.585936L 3.04086e-08 8.02714C 3.04086e-08 8.35076 0.262412 8.61308 0.586134 8.61308L 4.34595 8.61308C 4.66967 8.61308 4.93208 8.35076 4.93208 8.02714C 4.93208 7.70353 4.66967 7.44127 4.34595 7.44127Z" transform="translate(6.32031 0) scale(2)" fill="url(#paint4_linear)"></path> </g> </g> </g> <g id="Group_12"> <g id="Group_13"> <g id="Vector_6"> <path d="M 4.30797 0C 1.93254 0 -4.14987e-07 1.93189 -4.14987e-07 4.30651C -4.14987e-07 6.68113 1.93254 8.61302 4.30797 8.61302C 6.68339 8.61302 8.61594 6.68113 8.61594 4.30651C 8.61594 1.93189 6.68339 0 4.30797 0ZM 4.30797 7.44121C 2.57893 7.44121 1.17221 6.03502 1.17221 4.30651C 1.17221 2.578 2.57887 1.17181 4.30797 1.17181C 6.03706 1.17181 7.44373 2.578 7.44373 4.30651C 7.44373 6.03502 6.03701 7.44121 4.30797 7.44121Z" transform="translate(36.3906 0) scale(2)" fill="url(#paint5_linear)"></path> </g> </g> </g> <g id="Group_14"> <g id="Group_15"> <g id="Vector_7"> <path d="M 6.52319 6.52105C 5.30063 7.74326 3.31117 7.74326 2.08861 6.52105C 0.865998 5.29891 0.865998 3.31018 2.08861 2.08798C 3.31117 0.865779 5.30057 0.865779 6.52319 2.08798C 6.75207 2.31679 7.12321 2.31679 7.35216 2.08798C 7.58104 1.85917 7.58104 1.48816 7.35216 1.25929C 5.67247 -0.419764 2.93945 -0.419764 1.25976 1.25929C -0.419921 2.93841 -0.419921 5.67057 1.25976 7.34963C 2.09958 8.18921 3.20274 8.60898 4.30596 8.60898C 5.40918 8.60898 6.51234 8.18915 7.35221 7.34968C 7.5811 7.12088 7.5811 6.74986 7.35221 6.521C 7.12327 6.29225 6.75213 6.29225 6.52319 6.52105Z" transform="translate(18.7734 0.00390625) scale(2)" fill="url(#paint6_linear)"></path> </g> </g> </g> <g id="Group_16"> <g id="Group_17"> <g id="Vector_8"> <path d="M 0.586134 1.00135e-07C 0.262412 1.00135e-07 -4.00678e-07 0.262324 -4.00678e-07 0.585936L -4.00678e-07 2.2429C -4.00678e-07 2.56651 0.262412 2.82884 0.586134 2.82884C 0.909855 2.82884 1.17227 2.56651 1.17227 2.2429L 1.17227 0.585936C 1.17221 0.262324 0.909797 1.00135e-07 0.586134 1.00135e-07Z" transform="translate(28.8359 19.9634) scale(2)" fill="url(#paint7_linear)"></path> </g> </g> </g> <g id="Group_18"> <g id="Group_19"> <g id="Vector_9"> <path d="M 2.19578 0.171628C 1.96684 -0.0572387 1.59576 -0.0571801 1.36687 0.171628L 0.171686 1.36635C -0.0571994 1.59516 -0.0572581 1.96617 0.171686 2.19498C 0.286158 2.30941 0.43615 2.3666 0.586142 2.3666C 0.736134 2.3666 0.886183 2.30936 1.0006 2.19498L 2.19572 1.00026C 2.42467 0.771392 2.42473 0.400377 2.19578 0.171628Z" transform="translate(32.4531 22.8497) scale(2)" fill="url(#paint8_linear)"></path> </g> </g> </g> <g id="Group_20"> <g id="Group_21"> <g id="Vector_10"> <path d="M 2.19772 1.36838L 1.0006 0.171606C 0.771653 -0.0572603 0.400572 -0.0571431 0.171686 0.171606C -0.0571991 0.400414 -0.0572577 0.771428 0.171686 1.00024L 1.36881 2.19701C 1.48328 2.31144 1.63327 2.36863 1.78326 2.36863C 1.93325 2.36863 2.0833 2.31138 2.19772 2.19701C 2.4266 1.9682 2.42666 1.59719 2.19772 1.36838Z" transform="translate(22.8086 22.81) scale(2)" fill="url(#paint9_linear)"></path> </g> </g> </g> </g> </g> </g> <defs> <linearGradient id="paint0_linear" x2="1" gradientUnits="userSpaceOnUse" gradientTransform="matrix(0 17.8442 -17.8473 0 17.8473 0)"> <stop stop-color="#9F00FF"></stop> <stop offset="1" stop-color="#200DFB"></stop> </linearGradient> <linearGradient id="paint1_linear" x2="1" gradientUnits="userSpaceOnUse" gradientTransform="matrix(0 17.3338 -13.9113 0 13.9113 0)"> <stop stop-color="#9F00FF"></stop> <stop offset="1" stop-color="#200DFB"></stop> </linearGradient> <linearGradient id="paint2_linear" x2="1" gradientUnits="userSpaceOnUse" gradientTransform="matrix(0 2.84987 -4.54848 0 4.54848 0)"> <stop stop-color="#9F00FF"></stop> <stop offset="1" stop-color="#200DFB"></stop> </linearGradient> <linearGradient id="paint3_linear" x2="1" gradientUnits="userSpaceOnUse" gradientTransform="matrix(0 1.17337 -1.17277 0 1.17277 0)"> <stop stop-color="#9F00FF"></stop> <stop offset="1" stop-color="#200DFB"></stop> </linearGradient> <linearGradient id="paint4_linear" x2="1" gradientUnits="userSpaceOnUse" gradientTransform="matrix(0 8.61308 -4.93208 0 4.93208 0)"> <stop stop-color="#9F00FF"></stop> <stop offset="1" stop-color="#200DFB"></stop> </linearGradient> <linearGradient id="paint5_linear" x2="1" gradientUnits="userSpaceOnUse" gradientTransform="matrix(0 8.61302 -8.61594 0 8.61594 0)"> <stop stop-color="#9F00FF"></stop> <stop offset="1" stop-color="#200DFB"></stop> </linearGradient> <linearGradient id="paint6_linear" x2="1" gradientUnits="userSpaceOnUse" gradientTransform="matrix(0 8.60898 -7.52388 0 7.52388 0)"> <stop stop-color="#9F00FF"></stop> <stop offset="1" stop-color="#200DFB"></stop> </linearGradient> <linearGradient id="paint7_linear" x2="1" gradientUnits="userSpaceOnUse" gradientTransform="matrix(0 2.82884 -1.17227 0 1.17227 0)"> <stop stop-color="#9F00FF"></stop> <stop offset="1" stop-color="#200DFB"></stop> </linearGradient> <linearGradient id="paint8_linear" x2="1" gradientUnits="userSpaceOnUse" gradientTransform="matrix(0 2.3666 -2.36746 0 2.36746 0)"> <stop stop-color="#9F00FF"></stop> <stop offset="1" stop-color="#200DFB"></stop> </linearGradient> <linearGradient id="paint9_linear" x2="1" gradientUnits="userSpaceOnUse" gradientTransform="matrix(0 2.36863 -2.3694 0 2.3694 0)"> <stop stop-color="#9F00FF"></stop> <stop offset="1" stop-color="#200DFB"></stop> </linearGradient> </defs> </svg> 