<svg id="Слой_1" data-name="Слой 1" xmlns="http://www.w3.org/2000/svg" xmlns:xlink="http://www.w3.org/1999/xlink" viewBox="0 0 539.45 360.7"><defs><style>.cls-1{fill:url(#Безымянный_градиент_5);}.cls-2,.cls-3{fill:none;stroke-miterlimit:10;}.cls-2{stroke-width:9.95px;stroke:url(#Безымянный_градиент_29);}.cls-3{stroke-width:13.25px;stroke:url(#Безымянный_градиент_29-2);}.cls-4{fill:url(#Безымянный_градиент_29-3);}.cls-5{fill:url(#Безымянный_градиент_29-4);}.cls-6{fill:url(#Безымянный_градиент_29-5);}.cls-7{fill:url(#Безымянный_градиент_29-6);}</style><linearGradient id="Безымянный_градиент_5" x1="120.24" y1="361.35" x2="120.24" y2="361.35" gradientUnits="userSpaceOnUse"><stop offset="0" stop-color="#312b80"/><stop offset="1" stop-color="#d47693"/></linearGradient><linearGradient id="Безымянный_градиент_29" x1="386.7" y1="361.62" x2="481.27" y2="414.04" gradientTransform="translate(-180.58 62.87) rotate(-27.98)" gradientUnits="userSpaceOnUse"><stop offset="0" stop-color="#fe4"/><stop offset="0.21" stop-color="#efbc3f"/><stop offset="0.48" stop-color="#dd8239"/><stop offset="0.71" stop-color="#cf5835"/><stop offset="0.89" stop-color="#c73e32"/><stop offset="1" stop-color="#c43431"/></linearGradient><linearGradient id="Безымянный_градиент_29-2" x1="409.06" y1="375.33" x2="582.94" y2="471.71" xlink:href="#Безымянный_градиент_29"/><linearGradient id="Безымянный_градиент_29-3" x1="17.05" y1="328.15" x2="166.33" y2="328.15" gradientTransform="matrix(1, 0, 0, 1, 0, 0)" xlink:href="#Безымянный_градиент_29"/><linearGradient id="Безымянный_градиент_29-4" x1="169.98" y1="328.15" x2="308.6" y2="328.15" gradientTransform="matrix(1, 0, 0, 1, 0, 0)" xlink:href="#Безымянный_градиент_29"/><linearGradient id="Безымянный_градиент_29-5" x1="308.21" y1="328.15" x2="470.82" y2="328.15" gradientTransform="matrix(1, 0, 0, 1, 0, 0)" xlink:href="#Безымянный_градиент_29"/><linearGradient id="Безымянный_градиент_29-6" x1="24.42" y1="428.78" x2="457.03" y2="436.5" gradientTransform="matrix(1, 0, 0, 1, 0, 0)" xlink:href="#Безымянный_градиент_29"/></defs><title>Эко</title><path class="cls-1" d="M120.24,361.35Z" transform="translate(-17.05 -100.84)"/><path class="cls-2" d="M433.47,144.69c-77.31,48.6-72.44,133.1-70.66,149.65-1.06.64-2.14,1.28-3.23,1.92,0,0-80.2-100.06,50.11-189A131.13,131.13,0,0,1,433.47,144.69Z" transform="translate(-17.05 -100.84)"/><path class="cls-3" d="M545.76,111.51s47.86,183.2-182.59,185.68c0,0-.16-1-.36-2.86-1.77-16.55-6.65-101,70.66-149.65C460,128,496.31,115.52,545.76,111.51Z" transform="translate(-17.05 -100.84)"/><path class="cls-4" d="M166.33,328.15v13.33H81s2.67,14.66,24,14.66c13.33,0,24-10.66,24-10.66l22.66,36s-20,21.33-56,21.33c-45.32,0-78.64-33.32-78.64-74.64a74.64,74.64,0,0,1,149.28,0Zm-62.64-12c0-10.66-5.33-16-12-16s-12,5.33-12,16Z" transform="translate(-17.05 -100.84)"/><path class="cls-5" d="M258,348.14c13.33,0,24-10.66,24-10.66l26.66,42.65s-21.33,22.66-60,22.66c-45.32,0-78.64-33.32-78.64-74.64s33.32-74.64,78.64-74.64c38.65,0,60,22.66,60,22.66l-26.66,42.65s-10.66-10.66-24-10.66-21.33,8-21.33,20S244.62,348.14,258,348.14Z" transform="translate(-17.05 -100.84)"/><path class="cls-6" d="M389.51,253.5c48,0,81.3,33.32,81.3,74.64s-33.32,74.64-81.3,74.64-81.31-33.32-81.31-74.64S341.53,253.5,389.51,253.5Zm0,54.65c-9.33,0-17.33,8-17.33,20s8,20,17.33,20,17.33-8,17.33-20S398.84,308.15,389.51,308.15Z" transform="translate(-17.05 -100.84)"/><path class="cls-7" d="M27.7,446.3l3-2,3-1.89,6.11-3.78c4.15-2.37,8.39-4.6,12.65-6.84,2.13-1.12,4.33-2.09,6.51-3.1l6.59-3c2.22-1,4.5-1.78,6.75-2.68s4.51-1.82,6.83-2.59,4.64-1.5,7-2.26l3.51-1.11,3.57-1c2.38-.65,4.78-1.23,7.18-1.84l7.32-1.45c1.23-.23,2.45-.49,3.68-.71s2.49-.34,3.74-.5l3.75-.48c1.25-.15,2.5-.34,3.77-.4l7.62-.53c2.55-.13,5.13,0,7.7-.06s5.17.21,7.76.35c1.3.1,2.6.13,3.9.29l3.9.48q2,.24,3.91.53l3.89.76,3.89.78,3.86,1c1.29.35,2.59.65,3.86,1l3.82,1.23c2.58.76,5,1.85,7.53,2.83a132.31,132.31,0,0,1,14.35,7.06c4.56,2.53,8.65,5.28,12.28,7.44a58.79,58.79,0,0,0,9.79,4.95,43.43,43.43,0,0,0,9.71,2.51A54.69,54.69,0,0,0,241,442c6.88-.19,13.59-1.94,20.86-5,3.64-1.49,7.4-3.31,11.29-5.34l12.14-6.48c8.44-4.45,17.58-9.14,27.53-12.58a125.82,125.82,0,0,1,15.27-4.39A131.38,131.38,0,0,1,343.86,406l4-.21,2-.08,2,0,3.94,0c1.31,0,2.61.15,3.92.22s2.6.14,3.9.28l3.86.45c2.58.24,5.1.8,7.62,1.25s5,1.1,7.46,1.68,4.88,1.33,7.29,2.08,4.76,1.59,7.1,2.46l3.5,1.3c1.15.47,2.29,1,3.42,1.47,4.57,1.93,8.95,4.16,13.29,6.41,4.23,2.48,8.51,4.76,12.49,7.53l3,2c1,.66,2,1.31,3,2.05l5.79,4.31c1.92,1.43,3.75,3,5.59,4.53l2.75,2.3,2.69,2.36-1,1.67A277.87,277.87,0,0,0,426.67,437c-4.18-2.06-8.53-3.71-12.82-5.51l-6.56-2.37-1.64-.59L404,428l-3.33-1a148,148,0,0,0-27.15-5.75,107.84,107.84,0,0,0-54.26,7.37,199.53,199.53,0,0,0-24.81,12.59c-8.09,4.65-16.17,9.53-24.89,13.39a75.86,75.86,0,0,1-27.77,6.9,72.44,72.44,0,0,1-14.37-.92,61.55,61.55,0,0,1-13.92-3.85,79.79,79.79,0,0,1-12.64-6.79c-4-2.55-7.82-5.19-11.77-7.59A109.92,109.92,0,0,0,164,430.91a123.66,123.66,0,0,0-27.16-5.12,154.32,154.32,0,0,0-27.76.42l-6.92.75-6.88,1.11-3.44.55-3.41.71-6.83,1.44c-2.28.46-4.52,1.12-6.78,1.67s-4.52,1.14-6.76,1.75c-4.45,1.37-8.93,2.66-13.37,4.11s-8.82,3-13.2,4.66l-13,5.14Z" transform="translate(-17.05 -100.84)"/></svg>