<?xml version="1.0" encoding="UTF-8"?> <svg xmlns="http://www.w3.org/2000/svg" xmlns:xlink="http://www.w3.org/1999/xlink" width="60" height="60" viewBox="0 0 60 60"> <g id="Canvas" fill="none"> <g id="foggy"> <g id="Group"> <g id="Group_2"> <g id="Group_3"> <g id="Group_4"> <g id="Vector"> <path d="M 10.5738 -9.69026e-07L 0.614754 -9.69026e-07C 0.276639 -9.69026e-07 -2.3451e-08 0.297684 -2.3451e-08 0.661521C -2.3451e-08 1.02536 0.276639 1.32304 0.614754 1.32304L 10.5738 1.32304C 10.918 1.32304 11.1885 1.02536 11.1885 0.661521C 11.1885 0.297684 10.9119 -9.69026e-07 10.5738 -9.69026e-07Z" transform="translate(2.50781 57.3545) scale(2)" fill="url(#paint0_linear)"></path> </g> <g id="Vector_2"> <path d="M 24.2766 -9.69026e-07L 0.614754 -9.69026e-07C 0.276639 -9.69026e-07 9.3804e-08 0.297684 9.3804e-08 0.661521C 9.3804e-08 1.02536 0.276639 1.32304 0.614754 1.32304L 24.2766 1.32304C 24.6209 1.32304 24.8914 1.02536 24.8914 0.661521C 24.8914 0.297684 24.6148 -9.69026e-07 24.2766 -9.69026e-07Z" transform="translate(5.03125 51.9961) scale(2)" fill="url(#paint1_linear)"></path> </g> <g id="Vector_3"> <path d="M 12.4426 -1.77655e-06L 0.614754 -1.77655e-06C 0.276639 -1.77655e-06 0 0.297683 0 0.66152C 0 1.02536 0.276639 1.32304 0.614754 1.32304L 12.4426 1.32304C 12.7807 1.32304 13.0574 1.02536 13.0574 0.66152C 13.0574 0.297683 12.7807 -1.77655e-06 12.4426 -1.77655e-06Z" transform="translate(31.2305 46.5449) scale(2)" fill="url(#paint2_linear)"></path> </g> <g id="Vector_4"> <path d="M 7.48771 20.9107L 15.5779 20.9107C 17.3053 20.9107 18.8484 20.0639 19.8811 18.7409L 23.668 18.7409C 24.0061 18.7409 24.2828 18.4432 24.2828 18.0794C 24.2828 17.7155 24.0061 17.4179 23.668 17.4179L 20.668 17.4179C 20.8402 17.0276 20.9693 16.6108 21.0615 16.1808L 24.3811 16.1808C 27.4795 16.1808 30 13.462 30 10.1147C 30 6.76737 27.4734 4.0419 24.375 4.0419C 23.8832 4.0419 23.3607 4.12789 22.8627 4.28666C 21.541 1.66042 19.0205 -9.69026e-07 16.291 -9.69026e-07C 14.6803 -9.69026e-07 13.1434 0.549062 11.8463 1.58765C 11.5389 1.83241 11.2439 2.11025 10.9734 2.40794L 6.8791 2.40794C 6.54098 2.40794 6.26434 2.70562 6.26434 3.06946C 6.26434 3.4333 6.54098 3.73098 6.8791 3.73098L 9.98975 3.73098C 9.74385 4.14774 9.52869 4.58435 9.35656 5.03418C 8.7541 4.8688 8.1332 4.7828 7.48771 4.7828C 3.35656 4.7828 0 8.38809 0 12.8203C 0 17.2789 3.35656 20.9107 7.48771 20.9107ZM 11.5143 3.72436L 14.3115 3.72436C 14.6496 3.72436 14.9262 3.42668 14.9262 3.06284C 14.9262 2.69901 14.6496 2.40132 14.3115 2.40132L 12.916 2.40132C 13.9057 1.71334 15.0738 1.31643 16.2848 1.31643C 18.7193 1.31643 20.957 2.91069 21.9898 5.37155C 22.125 5.6957 22.4816 5.84785 22.7889 5.70893C 23.2869 5.48401 23.8648 5.35832 24.375 5.35832C 26.7971 5.35832 28.7643 7.48842 28.7643 10.1014C 28.7582 12.7211 26.791 14.8512 24.375 14.8512L 21.1906 14.8512C 21.1906 14.8445 21.1906 14.8445 21.1906 14.8379C 21.1906 13.2238 20.6066 11.7089 19.543 10.5711C 18.4857 9.43991 17.0717 8.81808 15.5717 8.81808C 15.043 8.81808 14.5451 8.88423 14.0717 9.02315C 13.2848 7.41566 12.0246 6.17861 10.5184 5.46417C 10.7705 4.82911 11.1086 4.24035 11.5143 3.72436ZM 7.47541 6.09923C 9.96516 6.09923 12.2029 7.66704 13.1742 10.0948C 13.3033 10.419 13.6537 10.5777 13.9611 10.452C 14.459 10.247 14.9877 10.1411 15.5656 10.1411C 17.9877 10.1411 19.9549 12.2448 19.9549 14.8313C 19.9549 15.7773 19.6967 16.6637 19.2541 17.4046L 16.2234 17.4046L 16.2234 17.4112C 15.8852 17.4112 15.6086 17.7089 15.6086 18.0728C 15.6086 18.4366 15.8852 18.7343 16.2234 18.7343L 18.0676 18.7343C 17.3545 19.2701 16.4939 19.581 15.5656 19.581L 7.47541 19.581C 4.02664 19.581 1.21721 16.5447 1.21721 12.8137C 1.21721 9.10915 4.02664 6.09923 7.47541 6.09923Z" transform="scale(2)" fill="url(#paint3_linear)"></path> </g> </g> </g> </g> </g> </g> </g> <defs> <linearGradient id="paint0_linear" x2="1" gradientUnits="userSpaceOnUse" gradientTransform="matrix(0 1.32304 -11.1885 0 11.1885 0)"> <stop stop-color="#9F00FF"></stop> <stop offset="1" stop-color="#200DFB"></stop> </linearGradient> <linearGradient id="paint1_linear" x2="1" gradientUnits="userSpaceOnUse" gradientTransform="matrix(0 1.32304 -24.8914 0 24.8914 0)"> <stop stop-color="#9F00FF"></stop> <stop offset="1" stop-color="#200DFB"></stop> </linearGradient> <linearGradient id="paint2_linear" x2="1" gradientUnits="userSpaceOnUse" gradientTransform="matrix(0 1.32304 -13.0574 0 13.0574 0)"> <stop stop-color="#9F00FF"></stop> <stop offset="1" stop-color="#200DFB"></stop> </linearGradient> <linearGradient id="paint3_linear" x2="1" gradientUnits="userSpaceOnUse" gradientTransform="matrix(0 20.9107 -30 0 30 0)"> <stop stop-color="#9F00FF"></stop> <stop offset="1" stop-color="#200DFB"></stop> </linearGradient> </defs> </svg> 