<svg id="Слой_1" data-name="Слой 1" xmlns="http://www.w3.org/2000/svg" xmlns:xlink="http://www.w3.org/1999/xlink" viewBox="0 0 553.99 240.61"><defs><style>.cls-1,.cls-2{fill:none;stroke-miterlimit:10;stroke-width:19.96px;}.cls-1{stroke:url(#Безымянный_градиент_31);}.cls-2{stroke:url(#Безымянный_градиент_29);}.cls-3{fill:url(#Безымянный_градиент_31-2);}.cls-4{fill:url(#Безымянный_градиент_31-3);}.cls-5{fill:url(#Безымянный_градиент_31-4);}</style><linearGradient id="Безымянный_градиент_31" x1="6.93" y1="275.5" x2="194.37" y2="275.5" gradientUnits="userSpaceOnUse"><stop offset="0" stop-color="#fe4"/><stop offset="0.23" stop-color="#feeb44"/><stop offset="0.38" stop-color="#fbe243"/><stop offset="0.5" stop-color="#f7d341"/><stop offset="0.62" stop-color="#f0be3f"/><stop offset="0.73" stop-color="#e7a23c"/><stop offset="0.83" stop-color="#dc8039"/><stop offset="0.92" stop-color="#d05935"/><stop offset="1" stop-color="#c43431"/></linearGradient><linearGradient id="Безымянный_градиент_29" x1="124.86" y1="264.5" x2="472.39" y2="264.5" gradientUnits="userSpaceOnUse"><stop offset="0" stop-color="#fe4"/><stop offset="0.21" stop-color="#efbc3f"/><stop offset="0.48" stop-color="#dd8239"/><stop offset="0.71" stop-color="#cf5835"/><stop offset="0.89" stop-color="#c73e32"/><stop offset="1" stop-color="#c43431"/></linearGradient><linearGradient id="Безымянный_градиент_31-2" x1="108.04" y1="230.4" x2="367.24" y2="230.4" xlink:href="#Безымянный_градиент_31"/><linearGradient id="Безымянный_градиент_31-3" x1="294.79" y1="160.7" x2="553.99" y2="160.7" xlink:href="#Безымянный_градиент_31"/><linearGradient id="Безымянный_градиент_31-4" x1="366.29" y1="49.18" x2="506.1" y2="49.18" xlink:href="#Безымянный_градиент_31"/></defs><title>Облако</title><path class="cls-1" d="M156,221.58a116.48,116.48,0,0,0-15.47,102.92,114.2,114.2,0,0,0,7.23,17.31c1.53,3,3.16,5.82,4.94,8.61,1.37,2.2,2.84,4.35,4.37,6.43H25.3c-.18-.45-.37-.9-.53-1.35a118.89,118.89,0,0,1,150-154.76A116.17,116.17,0,0,0,156,221.58Z" transform="translate(-6.93 -162.17)"/><path class="cls-2" d="M462.41,334a70.59,70.59,0,0,1-3.78,22.88H157.06c-1.53-2.08-3-4.22-4.37-6.43-1.78-2.8-3.41-5.65-4.94-8.61a114.2,114.2,0,0,1-7.23-17.31A116.35,116.35,0,1,1,365.71,268a70.86,70.86,0,0,1,96.7,66Z" transform="translate(-6.93 -162.17)"/><rect class="cls-3" x="108.04" y="220.2" width="259.2" height="20.41" rx="8.86" ry="8.86"/><rect class="cls-4" x="294.79" y="150.49" width="259.2" height="20.41" rx="8.86" ry="8.86"/><rect class="cls-5" x="366.29" y="38.56" width="139.8" height="21.24" rx="9.06" ry="9.06"/></svg>