<svg width="800" height="800" viewBox="0 0 800 800" fill="none" xmlns="http://www.w3.org/2000/svg">
<rect width="800" height="800" rx="250" fill="url(#paint0_linear)"/>
<g filter="url(#filter0_d)">
<path fill-rule="evenodd" clip-rule="evenodd" d="M554.221 368.353C546.004 316.823 525.912 271.915 498.365 240.059C505.471 217.712 530.331 165.045 578.496 118C514.306 145.668 478.621 190.598 467.362 212.005C452.634 201.895 436.664 194.987 419.875 191.898C419.929 191.294 419.957 190.682 419.957 190.063C419.957 178.919 410.923 169.885 399.779 169.885C388.636 169.885 379.602 178.919 379.602 190.063C379.602 190.682 379.63 191.294 379.684 191.898C362.895 194.987 346.924 201.895 332.197 212.005C320.938 190.598 285.253 145.668 221.063 118C269.228 165.045 294.088 217.712 301.193 240.059C273.675 271.883 253.595 316.732 245.362 368.197L179.903 351.484C169.814 323.139 149.637 263.856 149.637 253.479C148.484 354.943 149.156 384.153 149.637 386.074L241.405 410.075C241.296 413.585 241.241 417.116 241.241 420.665C241.241 436.281 242.308 451.534 244.342 466.28L149 507.14V682.974C160.05 662.316 182.726 603.993 185.032 535.966C218.364 522.633 239.812 513.154 252.718 506.973C276.208 591.572 333.201 651.266 399.779 651.266C466.851 651.266 524.195 590.684 547.357 505.087C560.154 511.255 581.827 520.868 615.968 534.524C618.274 602.552 640.95 660.875 652 681.533V505.699L555.479 464.333C557.343 450.193 558.318 435.595 558.318 420.665C558.318 417.171 558.265 413.696 558.159 410.241L650.559 386.074C651.039 384.153 651.712 354.943 650.559 253.479C650.559 263.856 630.381 323.139 620.292 351.484L554.221 368.353Z" fill="white"/>
</g>
<defs>
<filter id="filter0_d" x="149" y="118" width="522" height="593.974" filterUnits="userSpaceOnUse" color-interpolation-filters="sRGB">
<feFlood flood-opacity="0" result="BackgroundImageFix"/>
<feColorMatrix in="SourceAlpha" type="matrix" values="0 0 0 0 0 0 0 0 0 0 0 0 0 0 0 0 0 0 127 0"/>
<feOffset dx="15" dy="25"/>
<feGaussianBlur stdDeviation="2"/>
<feColorMatrix type="matrix" values="0 0 0 0 0 0 0 0 0 0 0 0 0 0 0 0 0 0 0.25 0"/>
<feBlend mode="normal" in2="BackgroundImageFix" result="effect1_dropShadow"/>
<feBlend mode="normal" in="SourceGraphic" in2="effect1_dropShadow" result="shape"/>
</filter>
<linearGradient id="paint0_linear" x1="0" y1="400" x2="800" y2="400" gradientUnits="userSpaceOnUse">
<stop stop-color="#FFAA04"/>
<stop offset="1" stop-color="#FF0000"/>
</linearGradient>
</defs>
</svg>
