<svg width="800" height="800" viewBox="0 0 800 800" fill="none" xmlns="http://www.w3.org/2000/svg">
<g filter="url(#filter0_d)">
<mask id="path-1-inside-1" fill="white">
<path fill-rule="evenodd" clip-rule="evenodd" d="M554.224 368.354C546.007 316.823 525.914 271.914 498.367 240.058C505.473 217.709 530.333 165.044 578.497 118C514.308 145.668 478.623 190.597 467.364 212.004C452.636 201.894 436.665 194.986 419.876 191.897C419.93 191.293 419.958 190.681 419.958 190.063C419.958 178.919 410.924 169.885 399.78 169.885C388.637 169.885 379.603 178.919 379.603 190.063C379.603 190.681 379.631 191.293 379.685 191.898C362.896 194.987 346.925 201.895 332.198 212.005C320.939 190.598 285.254 145.668 221.064 118C269.229 165.045 294.089 217.713 301.194 240.06C273.676 271.884 253.596 316.734 245.364 368.198L179.903 351.485C169.814 323.14 149.637 263.856 149.637 253.479C148.484 354.944 149.156 384.154 149.637 386.075L241.407 410.077C241.298 413.586 241.243 417.116 241.243 420.665C241.243 436.281 242.31 451.535 244.344 466.28L149 507.141V682.976C160.05 662.318 182.726 603.994 185.032 535.967C218.366 522.633 239.814 513.154 252.72 506.973C276.21 591.573 333.203 651.267 399.782 651.267C466.853 651.267 524.197 590.685 547.36 505.089C560.157 511.257 581.829 520.869 615.968 534.525C618.274 602.553 640.95 660.876 652 681.534V505.7L555.482 464.335C557.345 450.195 558.321 435.595 558.321 420.665C558.321 417.172 558.267 413.697 558.162 410.241L650.562 386.075C651.042 384.154 651.715 354.944 650.562 253.479C650.562 263.856 630.384 323.14 620.295 351.485L554.224 368.354Z"/>
</mask>
<path d="M498.367 240.058L486.931 236.421L484.895 242.824L489.29 247.907L498.367 240.058ZM554.224 368.354L542.374 370.244L544.445 383.236L557.193 379.981L554.224 368.354ZM578.497 118L586.882 126.585L573.747 106.98L578.497 118ZM467.364 212.004L460.573 221.897L471.701 229.536L477.984 217.59L467.364 212.004ZM419.876 191.897L407.924 190.821L406.943 201.719L417.705 203.699L419.876 191.897ZM379.685 191.898L381.857 203.699L392.619 201.719L391.637 190.82L379.685 191.898ZM332.198 212.005L321.577 217.591L327.86 229.538L338.989 221.898L332.198 212.005ZM221.064 118L225.814 106.98L212.679 126.585L221.064 118ZM301.194 240.06L310.272 247.909L314.666 242.827L312.63 236.424L301.194 240.06ZM245.364 368.198L242.395 379.825L255.136 383.078L257.213 370.094L245.364 368.198ZM179.903 351.485L168.598 355.509L170.741 361.531L176.935 363.112L179.903 351.485ZM149.637 253.479H161.637L137.637 253.343L149.637 253.479ZM149.637 386.075L137.995 388.986L139.72 395.885L146.6 397.685L149.637 386.075ZM241.407 410.077L253.401 410.449L253.698 400.888L244.443 398.467L241.407 410.077ZM244.344 466.28L249.071 477.31L257.482 473.705L256.231 464.64L244.344 466.28ZM149 507.141L144.273 496.112L137 499.229V507.141H149ZM149 682.976H137L159.582 688.636L149 682.976ZM185.032 535.967L180.575 524.825L173.304 527.733L173.039 535.56L185.032 535.967ZM252.72 506.973L264.283 503.763L260.452 489.965L247.537 496.15L252.72 506.973ZM547.36 505.089L552.57 494.279L539.551 488.005L535.776 501.955L547.36 505.089ZM615.968 534.525L627.961 534.119L627.696 526.292L620.425 523.383L615.968 534.525ZM652 681.534L641.418 687.194L664 681.534H652ZM652 505.7H664V497.787L656.727 494.67L652 505.7ZM555.482 464.335L543.585 462.767L542.397 471.783L550.755 475.365L555.482 464.335ZM558.162 410.241L555.125 398.632L545.875 401.051L546.167 410.608L558.162 410.241ZM650.562 386.075L653.598 397.685L660.478 395.885L662.203 388.986L650.562 386.075ZM650.562 253.479L662.561 253.343L638.562 253.479H650.562ZM620.295 351.485L623.264 363.112L629.457 361.531L631.6 355.509L620.295 351.485ZM489.29 247.907C515.143 277.803 534.448 320.538 542.374 370.244L566.074 366.464C557.566 313.108 536.686 266.024 507.444 232.208L489.29 247.907ZM570.112 109.415C520.409 157.962 494.575 212.382 486.931 236.421L509.803 243.694C516.371 223.036 540.257 172.125 586.882 126.585L570.112 109.415ZM477.984 217.59C488.055 198.444 521.748 155.528 583.247 129.02L573.747 106.98C506.868 135.807 469.192 182.749 456.743 206.418L477.984 217.59ZM417.705 203.699C432.669 206.452 447.086 212.639 460.573 221.897L474.155 202.111C458.186 191.149 440.661 183.52 422.047 180.095L417.705 203.699ZM407.958 190.063C407.958 190.321 407.947 190.573 407.924 190.821L431.828 192.974C431.914 192.013 431.958 191.042 431.958 190.063H407.958ZM399.78 181.885C404.297 181.885 407.958 185.547 407.958 190.063H431.958C431.958 172.292 417.552 157.885 399.78 157.885V181.885ZM391.603 190.063C391.603 185.547 395.264 181.885 399.78 181.885V157.885C382.009 157.885 367.603 172.292 367.603 190.063H391.603ZM391.637 190.82C391.614 190.574 391.603 190.321 391.603 190.063H367.603C367.603 191.041 367.647 192.013 367.734 192.975L391.637 190.82ZM338.989 221.898C352.476 212.64 366.892 206.453 381.857 203.699L377.514 180.096C358.9 183.521 341.375 191.15 325.406 202.112L338.989 221.898ZM216.314 129.02C277.814 155.528 311.507 198.446 321.577 217.591L342.818 206.419C330.37 182.751 292.694 135.808 225.814 106.98L216.314 129.02ZM312.63 236.424C304.988 212.386 279.153 157.964 229.449 109.415L212.679 126.585C259.305 172.127 283.191 223.04 289.759 243.696L312.63 236.424ZM257.213 370.094C265.154 320.452 284.446 277.775 310.272 247.909L292.117 232.211C262.906 265.992 242.039 313.015 233.515 366.303L257.213 370.094ZM176.935 363.112L242.395 379.825L248.333 356.571L182.872 339.858L176.935 363.112ZM137.637 253.479C137.637 256.163 138.211 259.317 138.789 262.019C139.428 265.001 140.321 268.522 141.376 272.363C143.49 280.06 146.386 289.512 149.56 299.409C155.915 319.226 163.526 341.259 168.598 355.509L191.208 347.461C186.192 333.366 178.669 311.585 172.413 292.079C169.282 282.315 166.503 273.228 164.518 266.006C163.524 262.386 162.762 259.352 162.258 256.995C161.693 254.358 161.637 253.39 161.637 253.479H137.637ZM161.278 383.165C161.504 384.066 161.533 384.71 161.496 384.307C161.484 384.171 161.462 383.874 161.435 383.357C161.381 382.337 161.323 380.768 161.268 378.521C161.158 374.043 161.066 367.132 161.024 357.056C160.94 336.917 161.06 304.317 161.636 253.615L137.637 253.343C137.061 304.106 136.94 336.843 137.024 357.156C137.066 367.306 137.16 374.399 137.275 379.109C137.333 381.455 137.397 383.276 137.468 384.618C137.503 385.282 137.543 385.909 137.593 386.462C137.619 386.747 137.71 387.845 137.995 388.986L161.278 383.165ZM244.443 398.467L152.673 374.466L146.6 397.685L238.37 421.686L244.443 398.467ZM253.243 420.665C253.243 417.24 253.296 413.835 253.401 410.449L229.412 409.704C229.3 413.338 229.243 416.992 229.243 420.665H253.243ZM256.231 464.64C254.272 450.441 253.243 435.735 253.243 420.665H229.243C229.243 436.827 230.347 452.628 232.456 467.92L256.231 464.64ZM153.727 518.171L249.071 477.31L239.617 455.25L144.273 496.112L153.727 518.171ZM161 682.976V507.141H137V682.976H161ZM173.039 535.56C170.803 601.499 148.73 658.039 138.419 677.316L159.582 688.636C171.37 666.597 194.648 606.49 197.025 536.373L173.039 535.56ZM247.537 496.15C234.95 502.179 213.763 511.55 180.575 524.825L189.488 547.108C222.969 533.716 244.679 524.13 257.904 517.796L247.537 496.15ZM399.782 639.267C341.063 639.267 287.12 586.012 264.283 503.763L241.158 510.184C265.3 597.134 325.344 663.267 399.782 663.267V639.267ZM535.776 501.955C513.248 585.204 458.934 639.267 399.782 639.267V663.267C474.772 663.267 535.145 596.167 558.943 508.224L535.776 501.955ZM620.425 523.383C586.433 509.787 565.034 500.287 552.57 494.279L542.15 515.899C555.28 522.228 577.225 531.952 611.512 545.667L620.425 523.383ZM662.581 675.874C652.27 656.597 630.197 600.057 627.961 534.119L603.975 534.932C606.352 605.049 629.63 665.155 641.418 687.194L662.581 675.874ZM640 505.7V681.534H664V505.7H640ZM550.755 475.365L647.273 516.73L656.727 494.67L560.209 453.305L550.755 475.365ZM546.321 420.665C546.321 435.073 545.379 449.149 543.585 462.767L567.379 465.903C569.311 451.24 570.321 436.117 570.321 420.665H546.321ZM546.167 410.608C546.269 413.941 546.321 417.294 546.321 420.665H570.321C570.321 417.049 570.265 413.452 570.156 409.875L546.167 410.608ZM647.525 374.466L555.125 398.632L561.198 421.851L653.598 397.685L647.525 374.466ZM638.562 253.615C639.139 304.317 639.258 336.917 639.174 357.056C639.132 367.132 639.04 374.043 638.93 378.521C638.875 380.768 638.817 382.337 638.763 383.357C638.736 383.874 638.714 384.171 638.702 384.307C638.666 384.71 638.695 384.066 638.92 383.165L662.203 388.986C662.489 387.845 662.579 386.747 662.605 386.462C662.655 385.909 662.695 385.282 662.73 384.618C662.801 383.276 662.865 381.455 662.923 379.109C663.038 374.399 663.132 367.306 663.174 357.156C663.258 336.843 663.138 304.106 662.561 253.343L638.562 253.615ZM631.6 355.509C636.672 341.259 644.283 319.226 650.638 299.409C653.812 289.512 656.708 280.06 658.823 272.363C659.878 268.522 660.771 265.001 661.409 262.019C661.987 259.317 662.562 256.163 662.562 253.479H638.562C638.562 253.39 638.505 254.358 637.941 256.995C637.436 259.352 636.674 262.386 635.68 266.006C633.696 273.228 630.917 282.315 627.785 292.079C621.529 311.585 614.007 333.366 608.99 347.461L631.6 355.509ZM557.193 379.981L623.264 363.112L617.326 339.858L551.256 356.727L557.193 379.981Z" fill="white" mask="url(#path-1-inside-1)"/>
</g>
<defs>
<filter id="filter0_d" x="149" y="118" width="522" height="593.976" filterUnits="userSpaceOnUse" color-interpolation-filters="sRGB">
<feFlood flood-opacity="0" result="BackgroundImageFix"/>
<feColorMatrix in="SourceAlpha" type="matrix" values="0 0 0 0 0 0 0 0 0 0 0 0 0 0 0 0 0 0 127 0"/>
<feOffset dx="15" dy="25"/>
<feGaussianBlur stdDeviation="2"/>
<feColorMatrix type="matrix" values="0 0 0 0 0 0 0 0 0 0 0 0 0 0 0 0 0 0 0.25 0"/>
<feBlend mode="normal" in2="BackgroundImageFix" result="effect1_dropShadow"/>
<feBlend mode="normal" in="SourceGraphic" in2="effect1_dropShadow" result="shape"/>
</filter>
</defs>
</svg>
