<?xml version="1.0" encoding="UTF-8"?> <svg xmlns="http://www.w3.org/2000/svg" xmlns:xlink="http://www.w3.org/1999/xlink" width="64" height="64" viewBox="0 0 64 64"> <g id="Canvas" fill="none"> <g id="podium"> <g id="Group"> <g id="Group_2"> <g id="Group_3"> <g id="Vector"> <path d="M 0.625 0C 0.28 0 0 0.28 0 0.625C 0 0.97 0.28 1.25 0.625 1.25C 0.97 1.25 1.25 0.97 1.25 0.625C 1.25 0.28 0.97 0 0.625 0Z" transform="translate(25.75 56.125) scale(2)" fill="url(#paint0_linear)"></path> </g> </g> </g> <g id="Group_4"> <g id="Group_5"> <g id="Vector_2"> <path d="M 3.125 5L 2.5 5L 2.5 0.625C 2.5 0.279813 2.22019 0 1.875 0L 0.625 0C 0.279813 0 0 0.279813 0 0.625C 0 0.970187 0.279813 1.25 0.625 1.25L 1.25 1.25L 1.25 5L 0.625 5C 0.279813 5 0 5.27981 0 5.625C 0 5.97019 0.279813 6.25 0.625 6.25L 3.125 6.25C 3.47019 6.25 3.75 5.97019 3.75 5.625C 3.75 5.27981 3.47019 5 3.125 5Z" transform="translate(28.25 33.625) scale(2)" fill="url(#paint1_linear)"></path> </g> </g> </g> <g id="Group_6"> <g id="Group_7"> <g id="Vector_3"> <path d="M 3.125 3.75C 3.47019 3.75 3.75 3.47019 3.75 3.125L 3.75 0.625C 3.75 0.279813 3.47019 0 3.125 0L 0.625 0C 0.279813 0 0 0.279813 0 0.625C 0 0.970187 0.279813 1.25 0.625 1.25L 2.5 1.25L 2.5 2.5L 0.625 2.5C 0.279813 2.5 0 2.77981 0 3.125L 0 5.625C 0 5.97019 0.279813 6.25 0.625 6.25L 3.125 6.25C 3.47019 6.25 3.75 5.97019 3.75 5.625C 3.75 5.27981 3.47019 5 3.125 5L 1.25 5L 1.25 3.75L 3.125 3.75Z" transform="translate(7.875 43.625) scale(2)" fill="url(#paint2_linear)"></path> </g> </g> </g> <g id="Group_8"> <g id="Group_9"> <g id="Vector_4"> <path d="M 3.125 0L 0.625 0C 0.279813 0 0 0.279813 0 0.625C 0 0.970187 0.279813 1.25 0.625 1.25L 2.5 1.25L 2.5 2.5L 0.625 2.5C 0.279813 2.5 0 2.77981 0 3.125C 0 3.47019 0.279813 3.75 0.625 3.75L 2.5 3.75L 2.5 5L 0.625 5C 0.279813 5 0 5.27981 0 5.625C 0 5.97019 0.279813 6.25 0.625 6.25L 3.125 6.25C 3.47019 6.25 3.75 5.97019 3.75 5.625L 3.75 0.625C 3.75 0.279813 3.47019 0 3.125 0Z" transform="translate(48.625 46.125) scale(2)" fill="url(#paint3_linear)"></path> </g> </g> </g> <g id="Group_10"> <g id="Group_11"> <g id="Vector_5"> <path d="M 31.375 6.4375L 21.625 6.4375L 21.625 0.625C 21.625 0.279813 21.3452 0 21 0L 11 0C 10.6548 0 10.375 0.279813 10.375 0.625L 10.375 3.9375L 0.625 3.9375C 0.279813 3.9375 0 4.21731 0 4.5625L 0 17.25C 0 17.5951 0.279813 17.875 0.625 17.875L 11 17.875L 21 17.875L 31.375 17.875C 31.7202 17.875 32 17.5951 32 17.25L 32 7.0625C 32 6.71731 31.7202 6.4375 31.375 6.4375ZM 10.375 16.625L 1.25 16.625L 1.25 5.1875L 10.375 5.1875L 10.375 16.625ZM 20.375 16.625L 11.625 16.625L 11.625 1.25L 20.375 1.25L 20.375 16.625ZM 30.75 16.625L 21.625 16.625L 21.625 7.6875L 30.75 7.6875L 30.75 16.625Z" transform="translate(0 28.25) scale(2)" fill="url(#paint4_linear)"></path> </g> </g> </g> <g id="Group_12"> <g id="Group_13"> <g id="Vector_6"> <path d="M 12.4888 4.76306C 12.4153 4.53681 12.2197 4.37187 11.9843 4.33769L 8.42585 3.82075L 6.82735 0.36275C 6.7251 0.141625 6.50372 0 6.26004 0C 6.01647 0 5.79497 0.141562 5.69272 0.362687L 4.09366 3.82087L 0.535159 4.33781C 0.299722 4.372 0.10416 4.53694 0.0305971 4.76319C -0.0429029 4.98944 0.0184099 5.23781 0.188785 5.40387L 2.77316 7.92294L 2.16072 11.6673C 2.12247 11.9012 2.21978 12.1367 2.4121 12.2753C 2.60447 12.4139 2.85866 12.4318 3.06835 12.3214L 6.25991 10.6431L 9.45085 12.3214C 9.54235 12.3695 9.64222 12.3932 9.74172 12.3932C 9.87047 12.3932 9.99866 12.3534 10.1072 12.2753C 10.2995 12.1367 10.3968 11.9012 10.3586 11.6672L 9.74616 7.92287L 12.3305 5.40381C 12.501 5.23775 12.5623 4.98938 12.4888 4.76306ZM 8.64066 7.25494C 8.4946 7.39731 8.42716 7.60206 8.4601 7.80337L 8.9226 10.631L 6.55091 9.38369C 6.36879 9.28794 6.15122 9.28794 5.9691 9.38369L 3.59678 10.6311L 4.05928 7.80337C 4.09222 7.60206 4.02485 7.39731 3.87872 7.25494L 1.96816 5.39269L 4.6086 5.00913C 4.81772 4.97875 4.99735 4.84475 5.08604 4.65294L 6.25991 2.11431L 7.43328 4.65281C 7.52197 4.84469 7.7016 4.97869 7.91079 5.00906L 10.5512 5.39262L 8.64066 7.25494Z" transform="translate(19.4297 0) scale(2)" fill="url(#paint5_linear)"></path> </g> </g> </g> <g id="Group_14"> <g id="Group_15"> <g id="Vector_7"> <path d="M 3.125 0L 0.625 0C 0.279813 0 0 0.279813 0 0.625C 0 0.970187 0.279813 1.25 0.625 1.25L 3.125 1.25C 3.47019 1.25 3.75 0.970187 3.75 0.625C 3.75 0.279813 3.47019 0 3.125 0Z" transform="translate(30.75 56.125) scale(2)" fill="url(#paint6_linear)"></path> </g> </g> </g> </g> </g> </g> <defs> <linearGradient id="paint0_linear" x2="1" gradientUnits="userSpaceOnUse" gradientTransform="matrix(0 1.25 -1.25 0 1.25 0)"> <stop stop-color="#9F00FF"></stop> <stop offset="1" stop-color="#200DFB"></stop> </linearGradient> <linearGradient id="paint1_linear" x2="1" gradientUnits="userSpaceOnUse" gradientTransform="matrix(0 6.25 -3.75 0 3.75 0)"> <stop stop-color="#9F00FF"></stop> <stop offset="1" stop-color="#200DFB"></stop> </linearGradient> <linearGradient id="paint2_linear" x2="1" gradientUnits="userSpaceOnUse" gradientTransform="matrix(0 6.25 -3.75 0 3.75 0)"> <stop stop-color="#9F00FF"></stop> <stop offset="1" stop-color="#200DFB"></stop> </linearGradient> <linearGradient id="paint3_linear" x2="1" gradientUnits="userSpaceOnUse" gradientTransform="matrix(0 6.25 -3.75 0 3.75 0)"> <stop stop-color="#9F00FF"></stop> <stop offset="1" stop-color="#200DFB"></stop> </linearGradient> <linearGradient id="paint4_linear" x2="1" gradientUnits="userSpaceOnUse" gradientTransform="matrix(0 17.875 -32 0 32 0)"> <stop stop-color="#9F00FF"></stop> <stop offset="1" stop-color="#200DFB"></stop> </linearGradient> <linearGradient id="paint5_linear" x2="1" gradientUnits="userSpaceOnUse" gradientTransform="matrix(0 12.3932 -12.5194 0 12.5194 0)"> <stop stop-color="#9F00FF"></stop> <stop offset="1" stop-color="#200DFB"></stop> </linearGradient> <linearGradient id="paint6_linear" x2="1" gradientUnits="userSpaceOnUse" gradientTransform="matrix(0 1.25 -3.75 0 3.75 0)"> <stop stop-color="#9F00FF"></stop> <stop offset="1" stop-color="#200DFB"></stop> </linearGradient> </defs> </svg> 