<svg id="Слой_1" data-name="Слой 1" xmlns="http://www.w3.org/2000/svg" xmlns:xlink="http://www.w3.org/1999/xlink" viewBox="0 0 476.28 559.26"><defs><style>.cls-1{fill:url(#Безымянный_градиент_29);}.cls-2{fill:url(#Безымянный_градиент_29-2);}.cls-3{fill:url(#Безымянный_градиент_29-3);}.cls-4{fill:url(#Безымянный_градиент_29-4);}.cls-5,.cls-6{fill:none;stroke-miterlimit:10;stroke-width:15.91px;}.cls-5{stroke:url(#Безымянный_градиент_29-5);}.cls-6{stroke:url(#Безымянный_градиент_29-6);}</style><linearGradient id="Безымянный_градиент_29" x1="45.97" y1="416.43" x2="522.24" y2="416.43" gradientUnits="userSpaceOnUse"><stop offset="0" stop-color="#fe4"/><stop offset="0.21" stop-color="#efbc3f"/><stop offset="0.48" stop-color="#dd8239"/><stop offset="0.71" stop-color="#cf5835"/><stop offset="0.89" stop-color="#c73e32"/><stop offset="1" stop-color="#c43431"/></linearGradient><linearGradient id="Безымянный_градиент_29-2" x1="256.99" y1="372.69" x2="311.2" y2="372.69" xlink:href="#Безымянный_градиент_29"/><linearGradient id="Безымянный_градиент_29-3" x1="104.41" y1="455.45" x2="159.64" y2="455.45" xlink:href="#Безымянный_градиент_29"/><linearGradient id="Безымянный_градиент_29-4" x1="408.64" y1="473.81" x2="463.72" y2="473.81" xlink:href="#Безымянный_градиент_29"/><linearGradient id="Безымянный_градиент_29-5" x1="243.39" y1="188.57" x2="405.84" y2="188.57" xlink:href="#Безымянный_градиент_29"/><linearGradient id="Безымянный_градиент_29-6" x1="148.55" y1="130.45" x2="419.67" y2="130.45" xlink:href="#Безымянный_градиент_29"/></defs><title>Места</title><path class="cls-1" d="M509.22,390.32c-45.11,0-90.25-.08-135.36.12-5.29,0-6.76-1.49-6.72-6.72.22-26.23.1-74.34,0-100.59,0-7.34-2.78-10.22-10-10.22q-73.07-.09-146.12,0c-7.32,0-10,2.78-10,10.14-.06,13.52,0,48.91-.06,62.43,0,7.77,0,7.79-7.93,7.79-44.94,0-89.87-2-134.79-2-9.68,0-12.27,2.62-12.27,12.37,0,60.64,0,123.25,0,183.9C46,557.25,48.71,560,58.28,560H509.14c10.42,0,13.1-2.62,13.1-12.86V403.4C522.22,393,519.56,390.34,509.22,390.32ZM201,456.93h0c0,26.23-.14,52.45.12,78.68.06,5.47-1.63,7.24-7.1,7.22q-61.71-.27-123.37,0c-5.65,0-7.1-2.07-7.08-7.3.06-52.65,0-107.27-.18-159.92,0-5.43,1.83-7.2,7.28-7.16,41.12.18,82.26,2.17,123.37,2,5.49,0,7.14,1.75,7.1,7.22C200.84,404.08,201,430.5,201,456.93Zm149.16-29.59h-.06c0,36-.1,71.92.12,107.88,0,5.63-1.51,7.63-7.34,7.62q-58.72-.33-117.45,0c-5.81,0-7.36-1.93-7.36-7.58.14-71.92.14-165.72-.08-237.66,0-6,1.69-7.75,7.71-7.71q58.43.39,116.85,0c6,0,7.77,1.61,7.73,7.69C350,333.53,350.12,391.37,350.12,427.34ZM504.75,535.5c0,5.85-2.09,7.4-7.66,7.34-20.46-.28-40.92-.12-61.38-.12s-40.92-.14-61.38.1c-5.39.06-7.22-1.59-7.18-7.16q.33-60.19,0-120.37c0-5.49,1.59-7,7.06-7q62,.33,123.93,0c5.45,0,6.72,1.87,6.7,6.84Q504.59,475.32,504.75,535.5Z" transform="translate(-45.97 -0.74)"/><path class="cls-2" d="M275.08,344.32c-3.46,0-6.19.16-8.9,0-5.79-.43-9.13-3.8-9.11-8.94s2.78-7.92,8.81-8.26c5.15-.3,10.33-.25,15.49-.13,8.66.2,11.65,3.2,11.7,12.08.12,18.08.06,36.17.08,54.26,0,7.94,0,7.94,8,8.1,6.5.13,9.91,3,10,8.39.1,5.6-3.49,8.71-10.25,8.73-11.53,0-23.05.05-34.58,0-6,0-9.24-3-9.38-8.32-.14-5.63,3.08-8.67,9.53-8.77,9.05-.13,8.5,1.13,8.52-8.82q0-20.57,0-41.14C275.08,349.31,275.08,347.18,275.08,344.32Z" transform="translate(-45.97 -0.74)"/><path class="cls-3" d="M122.53,483.44c9.43,0,17.94-.09,26.45,0,6.5.1,10.51,3.6,10.58,8.87.06,5-3.86,8.95-9.82,9-11.72.2-23.46.23-35.18,0-6.11-.12-9.9-4.11-10-10.34-.19-11.53-.23-23.06,0-34.58.15-6.85,3.74-10,10.64-10,7.35-.07,14.71-.15,22.06,0,3.5.08,4.87-1.1,5.1-4.72,1-15.31,1.09-15.3-14.3-15.3-4.77,0-9.54.11-14.31,0-5.28-.17-8.94-3.72-9-8.44s3.68-8.44,8.89-8.49q18.48-.18,37,0c5.45.06,8.77,3.47,8.85,9.09.16,12.12.23,24.25,0,36.37-.1,5.22-3,8.55-8.58,8.65-7.75.14-15.5.18-23.25.05-3.79-.06-5.41,1.3-5.19,5.24C122.73,473.38,122.53,477.93,122.53,483.44Z" transform="translate(-45.97 -0.74)"/><path class="cls-4" d="M445.71,445.44c-9.43,0-18.12.07-26.8,0-4.52,0-8.68-1.71-9.52-6.41-.48-2.65.76-6.14,2.36-8.46,1.07-1.56,4.14-2.38,6.33-2.43,11.91-.23,23.84-.29,35.75-.06,6.36.12,9.64,3.22,9.7,9.66q.36,36.35.08,72.7c0,6-3.53,9.09-9.49,9.18q-18.17.27-36.34,0c-5.6-.08-9.27-3.92-9.12-8.81s4-8.27,9.63-8.35c7.55-.11,15.1-.17,22.64,0,3.62.09,4.72-1.28,4.84-4.85.5-15,.61-15-14.29-15-4.57,0-9.14.11-13.7-.06-5.49-.2-9.23-4-9.11-8.89.11-4.57,3.83-8.15,9.06-8.27,7.35-.17,14.7-.27,22,0,4.71.17,6.4-1.61,6-6.26C445.44,454.9,445.71,450.72,445.71,445.44Z" transform="translate(-45.97 -0.74)"/><path class="cls-5" d="M365.67,206.52a4.66,4.66,0,0,0-1.33,4.12L371.59,253a4.64,4.64,0,0,1-6.74,4.89l-38.08-20a4.64,4.64,0,0,0-4.33,0l-38.08,20a4.64,4.64,0,0,1-6.74-4.89l6.44-37.6.84-4.81a4.61,4.61,0,0,0-1.35-4.12l-30.8-30a4.64,4.64,0,0,1,2.56-7.91l42.59-6.18a4.65,4.65,0,0,0,3.5-2.55l19-38.59a4.65,4.65,0,0,1,8.33,0l19,38.59a4.65,4.65,0,0,0,3.5,2.55l3.32.48,39.27,5.71a4.64,4.64,0,0,1,2.58,7.91Z" transform="translate(-45.97 -0.74)"/><path class="cls-6" d="M409.27,109.39,355.61,161.7a7.67,7.67,0,0,0-1,1.15l-3.32-.48a4.65,4.65,0,0,1-3.5-2.55l-19-38.59a4.65,4.65,0,0,0-8.33,0l-19,38.59a4.65,4.65,0,0,1-3.5,2.55l-42.59,6.18a4.64,4.64,0,0,0-2.56,7.91l30.8,30a4.61,4.61,0,0,1,1.35,4.12l-.84,4.81a7.93,7.93,0,0,0-3.72.93L214,251.26a8.09,8.09,0,0,1-11.73-8.53L215,168.86a8.12,8.12,0,0,0-2.33-7.16L159,109.39a8.09,8.09,0,0,1,4.47-13.8L237.6,84.82a8,8,0,0,0,6.08-4.41l33.16-67.2a8.1,8.1,0,0,1,14.51,0l33.16,67.2a8.07,8.07,0,0,0,6.08,4.41l74.16,10.78A8.1,8.1,0,0,1,409.27,109.39Z" transform="translate(-45.97 -0.74)"/></svg>