<svg id="Layer_1" data-name="Layer 1" xmlns="http://www.w3.org/2000/svg" viewBox="0 0 434.1 426.71"><defs><style>.cls-1{fill:none;stroke:#000;stroke-miterlimit:10;stroke-width:20px;}</style></defs><title>telefone</title><path class="cls-1" d="M452.62,434.12a87,87,0,0,1-9.6,13.46c-10.76,12.49-23.65,22.37-37.62,31-8.51,5.26-17.33,9.78-27.16,12.13a101.64,101.64,0,0,1-30.1,2.56C326.32,491.89,306,485.11,286.4,476c-21.22-9.86-40.87-22.32-59.73-36.08A570.71,570.71,0,0,1,166,388.57c-6.72-6.51-13.12-13.36-19.86-19.83a383.34,383.34,0,0,1-26.26-28.41,515.41,515.41,0,0,1-64.66-96.27c-5.83-11.21-10.4-22.84-12.52-35.32A129.59,129.59,0,0,1,41,194a89.44,89.44,0,0,1,8.43-44.13,173.89,173.89,0,0,1,34.07-48.83,96.81,96.81,0,0,1,17.67-14h0a2.47,2.47,0,0,1,3.05.46c2.24,2.41,4.48,4.79,6.69,7.22,16.78,18.47,32.79,37.59,47,58.12,7.78,11.24,15,22.82,20.36,35.47,1.24,3,2.18,6,3.28,9a1.76,1.76,0,0,1-.67,2.28c-12.82,10.79-22.89,23.68-29.35,39.23a73.59,73.59,0,0,0-5.69,25.52c-.62,15.41,3.63,29.54,11.12,42.82,7.32,13,16.91,24.14,28,34.13,8.32,7.53,16.36,15.35,24.73,22.84,10.72,9.61,22.59,17.46,36.23,22.37A73.78,73.78,0,0,0,276.6,391a78.21,78.21,0,0,0,33-10.3,105.49,105.49,0,0,0,29.51-24.71,1.62,1.62,0,0,1,2-.64c9.4,2.77,18.07,7.16,26.49,12.06,14.25,8.29,27.54,18,40.46,28.16q22.84,18,43.93,38.05A7.18,7.18,0,0,1,452.62,434.12Z" transform="translate(-30.88 -76.72)"/></svg>