<?xml version="1.0" encoding="UTF-8"?> <svg xmlns="http://www.w3.org/2000/svg" xmlns:xlink="http://www.w3.org/1999/xlink" width="54" height="60" viewBox="0 0 54 60"> <g id="Canvas" fill="none"> <g id="warranty"> <g id="Group"> <g id="Group_2"> <g id="Group_3"> <g id="Vector"> <path d="M 26.5199 4.94148L 26.4804 4.93451C 21.9709 4.13587 17.7057 2.50474 13.8033 0.086514C 13.6168 -0.029033 13.3818 -0.0288572 13.1955 0.0871586C 9.32032 2.50029 5.08187 4.12644 0.59786 4.92062L 0.479924 4.94148C 0.2024 4.99064 -8.85176e-09 5.23404 -8.85176e-09 5.51863L -8.85176e-09 13.1883C -8.85176e-09 17.0948 1.33489 20.9226 3.75881 23.9667C 6.18268 27.0108 9.59796 29.1486 13.3755 29.9864C 13.4166 29.9954 13.4582 30 13.5 30C 13.5418 30 13.5837 29.9954 13.6247 29.9863C 17.4026 29.1466 20.818 27.0071 23.2416 23.9618C 25.6652 20.9166 27 17.0877 27 13.1805L 27 5.51863C 27 5.23392 26.7975 4.99052 26.5199 4.94148ZM 25.8398 13.1805C 25.8398 20.6071 20.6582 27.1608 13.4999 28.8136C 6.34175 27.1644 1.16022 20.614 1.16022 13.1883L 1.16022 6.00888C 5.53905 5.18857 9.68758 3.59611 13.5008 1.27175C 17.3175 3.58749 21.4646 5.17925 25.8398 6.008L 25.8398 13.1805Z" transform="translate(54 0) scale(-2 2)" fill="url(#paint0_linear)"></path> </g> </g> </g> <g id="Group_4"> <g id="Group_5"> <g id="Group_6"> <g id="Vector_2"> <path d="M 0.580693 1.17762C 0.677919 1.17762 0.776422 1.15289 0.866977 1.10092L 0.872894 1.09758C 0.873126 1.09741 0.877824 1.09477 0.878056 1.09465C 1.1572 0.936273 1.25432 0.58055 1.09774 0.29848C 0.941057 0.0163507 0.585508 -0.0828486 0.306186 0.0750031L 0.293423 0.0822688C 0.0149132 0.24223 -0.0824286 0.599945 0.075941 0.881254C 0.182855 1.0711 0.378873 1.17762 0.580693 1.17762Z" transform="translate(28.1875 6.15918) scale(-2 2)" fill="url(#paint1_linear)"></path> </g> <g id="Vector_3"> <path d="M 8.30669 0.0571721C 5.80347 1.26309 3.15997 2.19491 0.4497 2.82655C 0.186447 2.8879 8.14362e-08 3.12462 8.14362e-08 3.39749L 8.14362e-08 8.88867C 8.14362e-08 9.52341 0.0424059 10.1643 0.125884 10.7935C 0.164867 11.0878 0.413908 11.3016 0.700075 11.3016C 0.725716 11.3016 0.751705 11.2999 0.777868 11.2963C 1.09542 11.2533 1.3183 10.9585 1.27572 10.6377C 1.19903 10.06 1.16016 9.4715 1.16016 8.88867L 1.16016 3.86079C 3.7953 3.21356 6.36548 2.29071 8.80611 1.11491C 9.09535 0.97563 9.21793 0.625884 9.08004 0.333793C 8.94203 0.0417034 8.5957 -0.0820468 8.30669 0.0571721Z" transform="translate(48.75 8.5835) scale(-2 2)" fill="url(#paint2_linear)"></path> </g> <g id="Vector_4"> <path d="M 8.68155 1.96696e-07C 8.36121 1.96696e-07 8.10144 0.262324 8.10144 0.585938L 8.10144 6.07712C 8.10144 11.2865 5.05419 16.0661 0.338137 18.2538C 0.0470379 18.3888 -0.0806441 18.7367 0.053071 19.0308C 0.150819 19.2457 0.360992 19.3723 0.580622 19.3723C 0.661663 19.3723 0.74398 19.3551 0.822352 19.3187C 3.30905 18.1652 5.41983 16.3186 6.92672 13.9784C 8.45426 11.6062 9.26166 8.87397 9.26166 6.07712L 9.26166 0.585938C 9.26166 0.262383 9.00189 1.96696e-07 8.68155 1.96696e-07Z" transform="translate(23.7773 14.2063) scale(-2 2)" fill="url(#paint3_linear)"></path> </g> <g id="Vector_5"> <path d="M 0.453539 0.0197643L 0.431437 0.025683C 0.121775 0.10871 -0.0626408 0.42951 0.0195606 0.742284C 0.0884776 1.00478 0.323131 1.17811 0.579829 1.17811C 0.62908 1.17811 0.679202 1.17178 0.729033 1.15836L 0.751136 1.15244C 1.0608 1.06941 1.24521 0.748613 1.16301 0.43584C 1.08081 0.12289 0.763027 -0.0632631 0.453539 0.0197643Z" transform="translate(28.1641 52.1868) scale(-2 2)" fill="url(#paint4_linear)"></path> </g> </g> </g> </g> <g id="Group_7"> <g id="Group_8"> <g id="Vector_6"> <path d="M 15.7893 8.19727C 16.1669 7.57747 16.0721 6.78797 15.5588 6.27733L 14.9561 5.67762C 14.8773 5.59928 14.8367 5.49053 14.8446 5.37926L 14.9049 4.52256C 14.9563 3.79336 14.5083 3.1367 13.8153 2.92565L 13.0171 2.6826C 12.9106 2.6502 12.8242 2.5725 12.7799 2.46944L 12.4459 1.6909C 12.1606 1.02639 11.4426 0.645528 10.7394 0.784806L 9.92941 0.945352C 9.81994 0.967032 9.707 0.938907 9.61998 0.86795L 8.97536 0.342247C 8.41573 -0.114023 7.60352 -0.114141 7.04395 0.342247L 6.39921 0.868009C 6.31226 0.938966 6.19931 0.967032 6.08978 0.945352L 5.27984 0.784864C 4.57628 0.645352 3.85851 1.02639 3.57339 1.69078L 3.23907 2.46955C 3.19481 2.5725 3.10843 2.6502 3.00198 2.6826L 2.20393 2.92565C 1.51099 3.13664 1.06291 3.7933 1.11431 4.52256L 1.1747 5.3792C 1.18253 5.49053 1.14186 5.59928 1.0632 5.67756L 0.460409 6.27733C -0.0528714 6.78803 -0.147661 7.57752 0.229932 8.19727L 0.675629 8.92882C 0.733466 9.02368 0.747215 9.13899 0.713511 9.24499L 0.452636 10.0642C 0.231788 10.7581 0.510937 11.5025 1.13136 11.8746L 1.85377 12.3079C 1.94908 12.365 2.0144 12.4611 2.03303 12.5714L 2.17515 13.4137C 2.29721 14.1367 2.88898 14.6672 3.61429 14.7036L 4.44175 14.7451C 4.55313 14.7508 4.65576 14.8054 4.72328 14.8951L 5.22774 15.5654C 5.52476 15.9602 5.98647 16.177 6.45688 16.177C 6.67529 16.177 6.89561 16.1302 7.10207 16.0327L 7.85007 15.6799C 7.95147 15.6321 8.06772 15.6321 8.16913 15.6799L 8.91706 16.0327C 9.56841 16.3398 10.3567 16.1433 10.7915 15.5653L 11.2958 14.895C 11.3633 14.8053 11.4659 14.7506 11.5773 14.7451L 12.405 14.7035C 13.1303 14.6671 13.722 14.1367 13.8441 13.4136L 13.9862 12.5714C 14.0048 12.461 14.0702 12.365 14.1655 12.3079L 14.8879 11.8746C 15.5083 11.5025 15.7875 10.7581 15.5666 10.0641L 15.3058 9.24511C 15.272 9.13899 15.2858 9.02374 15.3436 8.92887L 15.7893 8.19727ZM 14.8012 7.58321L 14.3554 8.31487C 14.1199 8.70165 14.0637 9.17145 14.2013 9.60388L 14.462 10.423C 14.5163 10.5932 14.4478 10.7758 14.2955 10.8671L 13.5731 11.3003C 13.1847 11.5333 12.9185 11.9248 12.8425 12.3745L 12.7004 13.2168C 12.6704 13.3941 12.5253 13.5243 12.3474 13.5332L 11.5198 13.5747C 11.0656 13.5976 10.6472 13.8204 10.3721 14.1861L 9.8678 14.8564C 9.76112 14.9981 9.56783 15.0464 9.40806 14.9711L 8.66013 14.6183C 8.24669 14.4233 7.77262 14.4233 7.35918 14.6183L 6.61119 14.9711C 6.45131 15.0464 6.25807 14.9981 6.15145 14.8564L 5.64693 14.1859C 5.37178 13.8203 4.95353 13.5975 4.49936 13.5747L 3.67189 13.5332C 3.49403 13.5243 3.34889 13.3941 3.3189 13.2168L 3.17677 12.3745C 3.10083 11.9247 2.83456 11.5333 2.44618 11.3003L 1.72377 10.867C 1.57155 10.7758 1.50304 10.5931 1.55722 10.423L 1.8181 9.6037C 1.95564 9.17139 1.89948 8.70159 1.66384 8.31475L 1.21809 7.58315C 1.1255 7.43116 1.14877 7.23751 1.27465 7.11223L 1.8775 6.51247C 2.1983 6.19319 2.36404 5.74987 2.33201 5.29606L 2.27162 4.43942C 2.25904 4.26053 2.36891 4.09946 2.53888 4.04772L 3.33694 3.80467C 3.77097 3.67248 4.12333 3.35573 4.30357 2.93573L 4.63789 2.15701C 4.69816 2.01662 4.83715 1.92779 4.98485 1.92779C 5.00858 1.92779 5.03254 1.93008 5.05644 1.93483L 5.86633 2.09531C 6.31376 2.18408 6.7735 2.06906 7.12806 1.77979L 7.7728 1.25408C 7.90999 1.14217 8.10926 1.14217 8.24657 1.25408L 8.89119 1.77979C 9.24575 2.06901 9.7056 2.18391 10.1529 2.09537L 10.9628 1.93483C 11.1352 1.90055 11.3115 1.99412 11.3814 2.15707L 11.7155 2.93561C 11.8958 3.35573 12.2482 3.67254 12.6822 3.80467L 13.4804 4.04772C 13.6503 4.09946 13.7603 4.26059 13.7477 4.43942L 13.6873 5.29612C 13.6553 5.74987 13.821 6.19319 14.1419 6.51252L 14.7447 7.11229C 14.8705 7.23762 14.8939 7.43122 14.8012 7.58321Z" transform="translate(43.0195 13.8237) scale(-2 2)" fill="url(#paint5_linear)"></path> </g> </g> </g> <g id="Group_9"> <g id="Group_10"> <g id="Vector_7"> <path d="M 3.98458 0.0758417C 3.70566 -0.0832991 3.35179 0.0161351 3.19424 0.29803L 0.0750492 5.8788C -0.0824504 6.16063 0.0159945 6.518 0.295027 6.67708C 0.385118 6.72847 0.48304 6.7529 0.579686 6.7529C 0.782144 6.7529 0.978743 6.64567 1.08537 6.45489L 4.20455 0.874124C 4.36205 0.592288 4.26361 0.234924 3.98458 0.0758417Z" transform="translate(31.9492 23.8557) scale(-2 2)" fill="url(#paint6_linear)"></path> </g> </g> </g> <g id="Group_11"> <g id="Group_12"> <g id="Vector_8"> <path d="M 1.74033 6.29426e-07C 0.78071 6.29426e-07 -8.0728e-07 0.788556 -8.0728e-07 1.75782C -8.0728e-07 2.72707 0.78071 3.51563 1.74033 3.51563C 2.69994 3.51563 3.48065 2.72707 3.48065 1.75782C 3.48065 0.788556 2.69994 6.29426e-07 1.74033 6.29426e-07ZM 1.74033 2.34375C 1.42045 2.34375 1.16022 2.0809 1.16022 1.75782C 1.16022 1.43473 1.42045 1.17188 1.74033 1.17188C 2.0602 1.17188 2.32043 1.43473 2.32043 1.75782C 2.32043 2.0809 2.0602 2.34375 1.74033 2.34375Z" transform="translate(26.4258 31.0005) scale(-2 2)" fill="url(#paint7_linear)"></path> </g> </g> </g> <g id="Group_13"> <g id="Group_14"> <g id="Vector_9"> <path d="M 1.74033 -1.50204e-07C 0.780711 -1.50204e-07 3.32826e-07 0.788555 3.32826e-07 1.75781C 3.32826e-07 2.72707 0.780711 3.51563 1.74033 3.51563C 2.69994 3.51563 3.48065 2.72707 3.48065 1.75781C 3.48065 0.788497 2.69994 -1.50204e-07 1.74033 -1.50204e-07ZM 1.74033 2.34375C 1.42045 2.34375 1.16022 2.0809 1.16022 1.75781C 1.16022 1.43473 1.42045 1.17188 1.74033 1.17188C 2.0602 1.17188 2.32044 1.43473 2.32044 1.75781C 2.32044 2.0809 2.0602 2.34375 1.74033 2.34375Z" transform="translate(34.5352 21.9683) scale(-2 2)" fill="url(#paint8_linear)"></path> </g> </g> </g> </g> </g> </g> <defs> <linearGradient id="paint0_linear" x2="1" gradientUnits="userSpaceOnUse" gradientTransform="matrix(0 30 -27 0 27 0)"> <stop stop-color="#9F00FF"></stop> <stop offset="1" stop-color="#200DFB"></stop> </linearGradient> <linearGradient id="paint1_linear" x2="1" gradientUnits="userSpaceOnUse" gradientTransform="matrix(0 1.17762 -1.17248 0 1.17248 0)"> <stop stop-color="#9F00FF"></stop> <stop offset="1" stop-color="#200DFB"></stop> </linearGradient> <linearGradient id="paint2_linear" x2="1" gradientUnits="userSpaceOnUse" gradientTransform="matrix(0 11.3016 -9.13666 0 9.13666 0)"> <stop stop-color="#9F00FF"></stop> <stop offset="1" stop-color="#200DFB"></stop> </linearGradient> <linearGradient id="paint3_linear" x2="1" gradientUnits="userSpaceOnUse" gradientTransform="matrix(0 19.3723 -9.26166 0 9.26166 0)"> <stop stop-color="#9F00FF"></stop> <stop offset="1" stop-color="#200DFB"></stop> </linearGradient> <linearGradient id="paint4_linear" x2="1" gradientUnits="userSpaceOnUse" gradientTransform="matrix(0 1.17811 -1.18257 0 1.18257 0)"> <stop stop-color="#9F00FF"></stop> <stop offset="1" stop-color="#200DFB"></stop> </linearGradient> <linearGradient id="paint5_linear" x2="1" gradientUnits="userSpaceOnUse" gradientTransform="matrix(0 16.177 -16.0192 0 16.0192 0)"> <stop stop-color="#9F00FF"></stop> <stop offset="1" stop-color="#200DFB"></stop> </linearGradient> <linearGradient id="paint6_linear" x2="1" gradientUnits="userSpaceOnUse" gradientTransform="matrix(0 6.7529 -4.2796 0 4.2796 0)"> <stop stop-color="#9F00FF"></stop> <stop offset="1" stop-color="#200DFB"></stop> </linearGradient> <linearGradient id="paint7_linear" x2="1" gradientUnits="userSpaceOnUse" gradientTransform="matrix(0 3.51563 -3.48065 0 3.48065 0)"> <stop stop-color="#9F00FF"></stop> <stop offset="1" stop-color="#200DFB"></stop> </linearGradient> <linearGradient id="paint8_linear" x2="1" gradientUnits="userSpaceOnUse" gradientTransform="matrix(0 3.51563 -3.48065 0 3.48065 0)"> <stop stop-color="#9F00FF"></stop> <stop offset="1" stop-color="#200DFB"></stop> </linearGradient> </defs> </svg> 