<svg id="Слой_1" data-name="Слой 1" xmlns="http://www.w3.org/2000/svg" xmlns:xlink="http://www.w3.org/1999/xlink" viewBox="0 0 452.99 522.24"><defs><style>.cls-1{fill:url(#Безымянный_градиент_29);}.cls-2{fill:url(#Безымянный_градиент_5);}.cls-3{fill:none;stroke-miterlimit:10;stroke-width:19.05px;stroke:url(#Безымянный_градиент_29-2);}.cls-4{fill:url(#Безымянный_градиент_29-3);}.cls-5{fill:url(#Безымянный_градиент_29-4);}.cls-6{fill:url(#Безымянный_градиент_29-5);}</style><linearGradient id="Безымянный_градиент_29" x1="71.23" y1="135.59" x2="472.74" y2="358.15" gradientUnits="userSpaceOnUse"><stop offset="0" stop-color="#fe4"/><stop offset="0.21" stop-color="#efbc3f"/><stop offset="0.48" stop-color="#dd8239"/><stop offset="0.71" stop-color="#cf5835"/><stop offset="0.89" stop-color="#c73e32"/><stop offset="1" stop-color="#c43431"/></linearGradient><linearGradient id="Безымянный_градиент_5" x1="120.24" y1="361.35" x2="120.24" y2="361.35" gradientUnits="userSpaceOnUse"><stop offset="0" stop-color="#312b80"/><stop offset="1" stop-color="#d47693"/></linearGradient><linearGradient id="Безымянный_градиент_29-2" x1="125.2" y1="285.93" x2="436.87" y2="285.93" xlink:href="#Безымянный_градиент_29"/><linearGradient id="Безымянный_градиент_29-3" x1="218.99" y1="241.12" x2="248.08" y2="289.53" gradientTransform="translate(346.55 -69.59) rotate(60)" xlink:href="#Безымянный_градиент_29"/><linearGradient id="Безымянный_градиент_29-4" x1="254.11" y1="300.11" x2="303.51" y2="327.49" xlink:href="#Безымянный_градиент_29"/><linearGradient id="Безымянный_градиент_29-5" x1="215.43" y1="272.5" x2="239.01" y2="285.57" xlink:href="#Безымянный_градиент_29"/></defs><title>Щит</title><path class="cls-1" d="M284.09,530.24l-7-2.41-3.59-1.28c-1.18-.43-2.24-.88-3.36-1.32l-6.68-2.67c-2.21-.92-4.4-1.9-6.61-2.86-4.44-1.86-8.73-4-13.1-6-2.16-1.07-4.29-2.19-6.43-3.31l-3.21-1.68L231,506.89c-8.48-4.64-16.67-9.81-24.73-15.22a276.87,276.87,0,0,1-23.32-17.57l-5.57-4.75-5.43-4.92c-1.84-1.62-3.56-3.35-5.34-5l-2.65-2.55c-.88-.85-1.72-1.74-2.58-2.61-6.93-6.93-13.5-14.24-19.74-21.84a326.37,326.37,0,0,1-33.16-48.84A378.21,378.21,0,0,1,84,329.73a440.52,440.52,0,0,1-16.21-56.85,485,485,0,0,1-8.58-58.48c-.42-4.91-.77-9.84-1-14.77s-.42-9.87-.51-14.83c-.17-9.92-.08-19.8.52-30l1-17.37,18.41-.6,2.71-.09,2.46-.18,2.44-.17c.83-.07,1.7-.19,2.55-.28l2.56-.28c.85-.09,1.7-.25,2.55-.38,1.7-.26,3.39-.49,5.07-.84a126.48,126.48,0,0,0,19.78-5.34,127,127,0,0,0,35.61-19.74A127.5,127.5,0,0,0,181,79.84,128.89,128.89,0,0,0,197.89,43.1L207.79,8l26.05,25.66a77.81,77.81,0,0,0,23.92,16.07A78.63,78.63,0,0,0,285.83,56a77.25,77.25,0,0,0,28.48-4.22,78,78,0,0,0,25-14.35l25.56-21.83L374,47.66a126.67,126.67,0,0,0,16.62,35.82,129.75,129.75,0,0,0,26.94,29.12,127,127,0,0,0,34.6,19.65,129.39,129.39,0,0,0,19.24,5.54c1.64.34,3.29.61,4.94.93s3.32.48,5,.74,3.45.36,5.18.55l.65.07.58,0,1.16.08,2.33.17,18.15,1.35.78,16.74c.47,10,.51,19.84.26,29.67s-.81,19.6-1.73,29.35a477.48,477.48,0,0,1-8.87,58,431.93,431.93,0,0,1-16.41,56.33,380.06,380.06,0,0,1-24.58,53.3q-7.2,12.79-15.5,24.92c-1.34,2-2.79,4-4.2,6L437,419l-2.2,2.93c-2.93,3.91-6,7.7-9.1,11.48C419.49,440.92,412.88,448.1,406,455c-3.4,3.47-7,6.78-10.5,10.1s-7.22,6.48-11,9.54A268.83,268.83,0,0,1,361.38,492l-3,2-3,1.95c-2,1.29-4,2.61-6.09,3.86-4.13,2.47-8.22,5-12.44,7.24s-8.43,4.54-12.7,6.69l-6.48,3.06-3.24,1.52-3.28,1.43-6.56,2.84-6.63,2.64c-1.11.44-2.19.88-3.33,1.31L291,527.84Zm0-2.42,6.12-2.83,3.07-1.38,3.17-1.52,6.35-3.06,6.25-3.24,3.13-1.62,3.08-1.71,6.15-3.44c4-2.42,8.1-4.75,12-7.33s7.85-5.15,11.72-7.79c1.93-1.33,3.81-2.74,5.71-4.11l2.85-2.07,2.78-2.15c7.47-5.67,14.63-11.75,21.53-18.1,3.48-3.14,6.8-6.46,10.14-9.74s6.53-6.73,9.64-10.23c6.27-7,12.28-14.17,17.9-21.67a333.65,333.65,0,0,0,29.79-47.62c17.15-33.37,28.86-69.42,35.86-106.28a467,467,0,0,0,7.12-55.82,432.64,432.64,0,0,0,.27-56.23l2.07,2a150.36,150.36,0,0,1-46.1-8.59,149.61,149.61,0,0,1-41.16-22.46,150.86,150.86,0,0,1-32.25-34.06,149.17,149.17,0,0,1-20.16-42.37l3.75,1.11a101.94,101.94,0,0,1-32.61,18.93A101.35,101.35,0,0,1,285,80.09,101.16,101.16,0,0,1,248.2,71.8,101.79,101.79,0,0,1,217,50.63l3.9-1a149.19,149.19,0,0,1-20.43,43.51,150.84,150.84,0,0,1-33.11,34.81A149.58,149.58,0,0,1,125,150.51a150.15,150.15,0,0,1-47.36,8l2.12-2a423.17,423.17,0,0,0-.17,56.64,466.54,466.54,0,0,0,6.84,56.28c6.87,37.16,18.39,73.58,35.54,107.27a320.23,320.23,0,0,0,67.61,90.21,314.78,314.78,0,0,0,44.86,34.56l3,1.92,3,1.83,6.08,3.65c4.14,2.28,8.21,4.7,12.44,6.83,2.1,1.09,4.19,2.2,6.3,3.26l6.39,3.09c1.06.51,2.14,1,3.18,1.53l3.09,1.39Z" transform="translate(-57.59 -8)"/><path class="cls-2" d="M120.24,361.35Z" transform="translate(-57.59 -8)"/><path class="cls-3" d="M304.12,150.65h0a24.06,24.06,0,0,0,37.76,12.27h0c19-14.64,45.39,4.53,37.35,27.14h0a24.06,24.06,0,0,0,23.34,32.12h0c24-.66,34.06,30.34,14.27,43.91h0a24.06,24.06,0,0,0,0,39.7h0c19.8,13.56,9.72,44.57-14.27,43.91h0a24.06,24.06,0,0,0-23.34,32.12h0c8,22.61-18.33,41.77-37.35,27.14h0a24.06,24.06,0,0,0-37.76,12.27h0c-6.78,23-39.38,23-46.17,0h0a24.06,24.06,0,0,0-37.76-12.27h0c-19,14.64-45.39-4.53-37.35-27.14h0a24.06,24.06,0,0,0-23.34-32.12h0c-24,.66-34.06-30.34-14.27-43.91h0a24.06,24.06,0,0,0,0-39.7h0c-19.8-13.56-9.72-44.57,14.27-43.91h0a24.06,24.06,0,0,0,23.34-32.12h0c-8-22.61,18.33-41.77,37.35-27.14h0A24.06,24.06,0,0,0,258,150.65h0C264.73,127.63,297.34,127.63,304.12,150.65Z" transform="translate(-57.59 -8)"/><circle class="cls-4" cx="233.54" cy="265.33" r="28.23" transform="translate(-170.6 326.91) rotate(-60)"/><circle class="cls-5" cx="278.81" cy="313.8" r="28.23"/><polygon class="cls-6" points="168.17 357.77 264.68 200.31 286.27 200.31 191.66 357.77 168.17 357.77"/></svg>