<?xml version="1.0" encoding="UTF-8"?> <svg xmlns="http://www.w3.org/2000/svg" width="512" height="512" viewBox="0 0 512 512" fill="none"> <path d="M208.821 412.782C133.632 392.824 81.1191 324.489 81.1191 246.603C81.1191 216.856 88.8326 187.658 103.412 161.94C111.628 159.545 133.516 151.626 144.531 132.822C157.963 109.892 149.367 80.7571 148.994 79.5283C147.86 75.7893 144.043 73.5522 140.228 74.392C138.974 74.6682 109.357 81.4183 95.9248 104.349C85.0098 122.981 88.6411 145.712 90.585 154.235C83.0549 167.455 77.1944 181.519 73.1103 196.102C69.8329 189.879 65.3767 183.737 59.2998 178.774C59.2998 178.773 59.2998 178.773 59.2998 178.773C38.7193 161.962 8.6071 165.953 7.33547 166.134C3.46771 166.676 0.667128 170.103 0.907491 174.002C0.98728 175.284 3.08173 205.587 23.6632 222.4C37.4168 233.635 55.4261 235.578 66.2405 235.578C66.3292 235.578 66.414 235.577 66.5018 235.577C66.2863 239.242 66.1587 242.918 66.1587 246.603C66.1587 263.552 68.4526 280.084 72.7682 295.862C67.4951 292.629 61.488 289.984 54.8307 288.686C28.7458 283.6 4.10103 301.357 3.06378 302.115C-0.0888702 304.422 -0.935628 308.765 1.11993 312.087C1.37126 312.493 7.38334 322.118 17.7419 330.77C20.9135 333.419 25.631 332.996 28.278 329.824C30.927 326.654 30.5041 321.936 27.3325 319.288C23.6582 316.218 20.6303 312.971 18.3802 310.28C25.9661 306.242 39.1163 300.864 51.9683 303.371C64.8202 305.876 74.9883 315.799 80.4987 322.386C73.6169 326.048 62.1513 330.814 50.4842 329.793C46.4299 329.446 42.7357 332.536 42.3807 336.594C42.0256 340.654 45.1214 344.342 49.1816 344.697C50.7066 344.83 52.2176 344.893 53.7176 344.893C67.9001 344.892 80.771 339.306 88.4566 335.1C97.3062 351.546 108.572 366.583 121.845 379.692C114.815 379.549 107.285 380.474 100 383.39C75.3264 393.26 64.2447 421.543 63.786 422.742C62.3877 426.39 64.0313 430.499 67.56 432.175C68.3997 432.574 83.0579 439.41 100.45 439.41C107.082 439.41 114.114 438.416 120.925 435.691C137.537 429.046 147.979 414.062 153.175 404.609C168.9 414.564 186.294 422.282 204.983 427.242C209.029 428.315 213.276 425.74 214.199 421.659C215.074 417.787 212.656 413.799 208.821 412.782ZM33.1262 210.815C22.977 202.524 18.7093 188.956 16.9709 180.547C25.5353 180.557 39.6259 182.022 49.8349 190.361C59.9751 198.645 64.2438 212.195 65.9851 220.606C57.3919 220.576 43.2633 219.096 33.1262 210.815ZM108.834 111.912C115.451 100.614 128.179 94.3032 136.22 91.2842C137.52 99.7787 138.239 113.965 131.622 125.26C125.005 136.558 112.277 142.869 104.236 145.888C102.936 137.393 102.216 123.207 108.834 111.912ZM115.367 421.8C103.2 426.668 89.2605 423.833 81.0622 421.285C85.2172 413.795 93.3187 402.175 105.557 397.279C117.726 392.411 131.664 395.244 139.862 397.793C135.708 405.284 127.607 416.904 115.367 421.8Z" fill="url(#paint0_linear)"></path> <path d="M508.937 302.115C507.9 301.356 483.252 283.601 457.17 288.686C450.513 289.984 444.506 292.629 439.233 295.862C443.549 280.084 445.842 263.552 445.842 246.603C445.842 242.917 445.715 239.239 445.498 235.573C445.585 235.573 445.669 235.575 445.757 235.575C452.378 235.575 461.696 234.851 471.046 231.727C474.964 230.418 477.079 226.18 475.769 222.261C474.459 218.344 470.223 216.23 466.303 217.538C458.919 220.006 451.383 220.592 446.015 220.609C447.757 212.194 452.026 198.644 462.165 190.361C472.306 182.077 486.438 180.598 495.026 180.57C493.803 186.475 491.334 194.913 486.453 202.294C484.174 205.74 485.12 210.381 488.566 212.66C492.011 214.939 496.652 213.992 498.932 210.546C509.734 194.212 511.044 174.82 511.093 174.002C511.334 170.103 508.534 166.676 504.666 166.134C503.393 165.954 473.281 161.962 452.701 178.774C446.623 183.739 442.168 189.88 438.891 196.103C434.807 181.52 428.946 167.456 421.416 154.236C423.36 145.713 426.991 122.982 416.076 104.35C402.644 81.4193 373.027 74.6692 371.773 74.3929C367.958 73.5532 364.14 75.7902 363.006 79.5293C362.633 80.7581 354.037 109.893 367.469 132.823C378.484 151.627 400.373 159.546 408.588 161.941C423.167 187.659 430.881 216.857 430.881 246.604C430.881 324.49 378.368 392.825 303.178 412.783C299.343 413.801 296.925 417.788 297.8 421.659C298.724 425.74 302.971 428.315 307.016 427.242C325.705 422.282 343.1 414.564 358.824 404.609C364.02 414.062 374.462 429.046 391.074 435.691C397.887 438.417 404.916 439.41 411.549 439.41C428.938 439.41 443.599 432.574 444.439 432.175C447.968 430.499 449.61 426.39 448.213 422.742C447.753 421.544 436.672 393.26 411.998 383.39C404.713 380.475 397.184 379.549 390.154 379.692C403.426 366.583 414.692 351.548 423.541 335.102C431.224 339.308 444.091 344.892 458.283 344.892C461.453 344.892 464.69 344.612 467.948 343.977C494.032 338.891 510.205 313.18 510.88 312.087C512.936 308.765 512.089 304.421 508.937 302.115ZM406.444 397.279C418.611 402.147 426.749 413.812 430.928 421.313C422.752 423.87 408.87 426.696 396.633 421.8C384.465 416.932 376.327 405.267 372.148 397.766C380.323 395.207 394.205 392.382 406.444 397.279ZM380.379 125.26C373.76 113.962 374.481 99.7737 375.78 91.2842C383.825 94.3052 396.551 100.615 403.167 111.912C409.786 123.21 409.065 137.398 407.766 145.888C399.72 142.867 386.995 136.556 380.379 125.26ZM465.086 329.293C452.224 331.8 439.06 326.411 431.481 322.375C436.963 315.794 447.094 305.893 460.033 303.371C472.897 300.865 486.06 306.252 493.638 310.289C488.156 316.87 478.025 326.771 465.086 329.293Z" fill="url(#paint1_linear)"></path> <path d="M327.632 318.303C327.632 300.74 313.343 286.45 295.778 286.45H295.618V185.424C295.618 181.293 292.268 177.944 288.137 177.944C284.006 177.944 280.657 181.293 280.657 185.424V293.93C280.657 298.061 284.006 301.41 288.137 301.41H295.778C305.092 301.41 312.671 308.988 312.671 318.303C312.671 327.618 305.093 335.197 295.778 335.197H226.922C217.608 335.197 210.029 327.619 210.029 318.303C210.029 308.989 217.607 301.41 226.922 301.41H239.39C243.522 301.41 246.871 298.061 246.871 293.93V163.222C246.871 160.198 245.049 157.471 242.256 156.312C239.464 155.153 236.246 155.791 234.106 157.928L228.156 163.867C221.563 170.447 210.846 170.437 204.266 163.846C197.685 157.254 197.696 146.537 204.288 139.956L251.83 92.5024C256.681 87.6622 263.907 86.229 270.236 88.8541C276.566 91.4801 280.657 97.6049 280.657 104.459V155.504C280.657 159.635 284.006 162.984 288.137 162.984C292.268 162.984 295.618 159.635 295.618 155.504V104.459C295.618 91.536 287.905 79.9866 275.967 75.0357C264.028 70.0878 250.406 72.7876 241.262 81.9145L193.72 129.368C181.289 141.776 181.27 161.983 193.679 174.415C204.012 184.767 219.756 186.51 231.912 179.637V286.45H226.924C209.361 286.45 195.071 300.739 195.071 318.303C195.071 335.867 209.36 350.157 226.924 350.157H295.78C313.343 350.156 327.632 335.867 327.632 318.303Z" fill="url(#paint2_linear)"></path> <defs> <linearGradient id="paint0_linear" x1="107.189" y1="74.2158" x2="107.189" y2="439.41" gradientUnits="userSpaceOnUse"> <stop stop-color="#8011D6"></stop> <stop offset="0.508019" stop-color="#2D0CFC"></stop> <stop offset="1" stop-color="#9B01FF"></stop> </linearGradient> <linearGradient id="paint1_linear" x1="404.811" y1="74.2168" x2="404.811" y2="439.41" gradientUnits="userSpaceOnUse"> <stop stop-color="#8011D6"></stop> <stop offset="0.508019" stop-color="#2D0CFC"></stop> <stop offset="1" stop-color="#9B01FF"></stop> </linearGradient> <linearGradient id="paint2_linear" x1="256.008" y1="72.5918" x2="256.008" y2="350.157" gradientUnits="userSpaceOnUse"> <stop stop-color="#8011D6"></stop> <stop offset="0.508019" stop-color="#2D0CFC"></stop> <stop offset="1" stop-color="#9B01FF"></stop> </linearGradient> </defs> </svg> 