<svg width="474" height="144" viewBox="0 0 474 144" fill="none" xmlns="http://www.w3.org/2000/svg">
<g filter="url(#filter0_d)">
<rect x="12" y="2" width="450" height="120" rx="60" fill="url(#paint0_linear)"/>
</g>
<path d="M115.852 55.684C115.852 57.0467 115.423 58.1293 114.564 58.932C113.706 59.716 112.558 60.22 111.12 60.444V60.556C112.8 60.78 114.079 61.3027 114.956 62.124C115.834 62.9453 116.272 64.0187 116.272 65.344C116.272 67.0987 115.6 68.5267 114.256 69.628C112.912 70.7293 110.896 71.28 108.208 71.28C107.126 71.28 106.09 71.196 105.1 71.028C104.13 70.8787 103.224 70.5987 102.384 70.188V67.892C103.262 68.3027 104.214 68.6293 105.24 68.872C106.286 69.096 107.266 69.208 108.18 69.208C109.972 69.208 111.326 68.872 112.24 68.2C113.174 67.528 113.64 66.576 113.64 65.344C113.64 64.0747 113.099 63.1507 112.016 62.572C110.934 61.9933 109.422 61.704 107.48 61.704H104.624V59.604H107.34C109.319 59.604 110.794 59.2773 111.764 58.624C112.754 57.952 113.248 57.056 113.248 55.936C113.248 54.928 112.875 54.1533 112.128 53.612C111.382 53.0707 110.411 52.8 109.216 52.8C107.966 52.8 106.92 52.9587 106.08 53.276C105.259 53.5933 104.456 54.004 103.672 54.508L102.468 52.8C103.252 52.2213 104.214 51.736 105.352 51.344C106.51 50.9333 107.807 50.728 109.244 50.728C111.41 50.728 113.052 51.1947 114.172 52.128C115.292 53.0613 115.852 54.2467 115.852 55.684ZM125.845 55.74C127.675 55.74 129.028 56.1413 129.905 56.944C130.783 57.7467 131.221 59.0253 131.221 60.78V71H129.429L128.953 68.872H128.841C128.188 69.6933 127.497 70.3 126.769 70.692C126.06 71.084 125.071 71.28 123.801 71.28C122.439 71.28 121.309 70.9253 120.413 70.216C119.517 69.488 119.069 68.3587 119.069 66.828C119.069 65.3347 119.657 64.1867 120.833 63.384C122.009 62.5627 123.82 62.1147 126.265 62.04L128.813 61.956V61.06C128.813 59.8093 128.543 58.9413 128.001 58.456C127.46 57.9707 126.695 57.728 125.705 57.728C124.921 57.728 124.175 57.8493 123.465 58.092C122.756 58.316 122.093 58.5773 121.477 58.876L120.721 57.028C121.375 56.6733 122.149 56.3747 123.045 56.132C123.941 55.8707 124.875 55.74 125.845 55.74ZM128.785 63.664L126.573 63.748C124.707 63.8227 123.409 64.1213 122.681 64.644C121.972 65.1667 121.617 65.904 121.617 66.856C121.617 67.696 121.869 68.312 122.373 68.704C122.896 69.096 123.559 69.292 124.361 69.292C125.631 69.292 126.685 68.9467 127.525 68.256C128.365 67.5467 128.785 66.464 128.785 65.008V63.664ZM144.733 55.992H147.421L141.009 63.216L147.953 71H145.097L138.321 63.384V71H135.857V55.992H138.321V63.272L144.733 55.992ZM156.361 55.74C158.19 55.74 159.544 56.1413 160.421 56.944C161.298 57.7467 161.737 59.0253 161.737 60.78V71H159.945L159.469 68.872H159.357C158.704 69.6933 158.013 70.3 157.285 70.692C156.576 71.084 155.586 71.28 154.317 71.28C152.954 71.28 151.825 70.9253 150.929 70.216C150.033 69.488 149.585 68.3587 149.585 66.828C149.585 65.3347 150.173 64.1867 151.349 63.384C152.525 62.5627 154.336 62.1147 156.781 62.04L159.329 61.956V61.06C159.329 59.8093 159.058 58.9413 158.517 58.456C157.976 57.9707 157.21 57.728 156.221 57.728C155.437 57.728 154.69 57.8493 153.981 58.092C153.272 58.316 152.609 58.5773 151.993 58.876L151.237 57.028C151.89 56.6733 152.665 56.3747 153.561 56.132C154.457 55.8707 155.39 55.74 156.361 55.74ZM159.301 63.664L157.089 63.748C155.222 63.8227 153.925 64.1213 153.197 64.644C152.488 65.1667 152.133 65.904 152.133 66.856C152.133 67.696 152.385 68.312 152.889 68.704C153.412 69.096 154.074 69.292 154.877 69.292C156.146 69.292 157.201 68.9467 158.041 68.256C158.881 67.5467 159.301 66.464 159.301 65.008V63.664ZM170.32 55.712C172.038 55.712 173.4 56.0573 174.408 56.748C175.435 57.42 175.948 58.3907 175.948 59.66C175.948 60.5747 175.696 61.3027 175.192 61.844C174.688 62.3667 173.998 62.7493 173.12 62.992V63.104C173.718 63.272 174.268 63.5053 174.772 63.804C175.276 64.1027 175.678 64.4947 175.976 64.98C176.294 65.4653 176.452 66.0907 176.452 66.856C176.452 68.1067 175.93 69.1613 174.884 70.02C173.858 70.86 172.243 71.28 170.04 71.28C168.958 71.28 167.978 71.1867 167.1 71C166.223 70.832 165.495 70.5987 164.916 70.3V68.088C165.551 68.3867 166.298 68.6573 167.156 68.9C168.034 69.1427 168.986 69.264 170.012 69.264C171.132 69.264 172.075 69.0773 172.84 68.704C173.624 68.312 174.016 67.6493 174.016 66.716C174.016 65.036 172.588 64.196 169.732 64.196H167.716V62.18H169.34C170.628 62.18 171.655 62.012 172.42 61.676C173.204 61.3213 173.596 60.724 173.596 59.884C173.596 59.1747 173.298 58.6427 172.7 58.288C172.122 57.9333 171.282 57.756 170.18 57.756C169.359 57.756 168.631 57.84 167.996 58.008C167.38 58.1573 166.699 58.3907 165.952 58.708L165.084 56.748C166.652 56.0573 168.398 55.712 170.32 55.712ZM185.783 55.74C187.612 55.74 188.965 56.1413 189.843 56.944C190.72 57.7467 191.159 59.0253 191.159 60.78V71H189.367L188.891 68.872H188.779C188.125 69.6933 187.435 70.3 186.707 70.692C185.997 71.084 185.008 71.28 183.739 71.28C182.376 71.28 181.247 70.9253 180.351 70.216C179.455 69.488 179.007 68.3587 179.007 66.828C179.007 65.3347 179.595 64.1867 180.771 63.384C181.947 62.5627 183.757 62.1147 186.203 62.04L188.751 61.956V61.06C188.751 59.8093 188.48 58.9413 187.939 58.456C187.397 57.9707 186.632 57.728 185.643 57.728C184.859 57.728 184.112 57.8493 183.403 58.092C182.693 58.316 182.031 58.5773 181.415 58.876L180.659 57.028C181.312 56.6733 182.087 56.3747 182.983 56.132C183.879 55.8707 184.812 55.74 185.783 55.74ZM188.723 63.664L186.511 63.748C184.644 63.8227 183.347 64.1213 182.619 64.644C181.909 65.1667 181.555 65.904 181.555 66.856C181.555 67.696 181.807 68.312 182.311 68.704C182.833 69.096 183.496 69.292 184.299 69.292C185.568 69.292 186.623 68.9467 187.463 68.256C188.303 67.5467 188.723 66.464 188.723 65.008V63.664ZM206.154 58.064H201.254V71H198.818V58.064H193.974V55.992H206.154V58.064ZM211.574 62.152H216.026C219.928 62.152 221.878 63.5707 221.878 66.408C221.878 67.808 221.402 68.928 220.45 69.768C219.498 70.5893 217.986 71 215.914 71H209.11V55.992H211.574V62.152ZM219.414 66.548C219.414 65.6333 219.088 65.0173 218.434 64.7C217.8 64.364 216.904 64.196 215.746 64.196H211.574V69.012H215.802C216.848 69.012 217.706 68.8253 218.378 68.452C219.069 68.0787 219.414 67.444 219.414 66.548ZM245.619 63.468C245.619 65.9507 244.985 67.8733 243.715 69.236C242.465 70.5987 240.766 71.28 238.619 71.28C237.294 71.28 236.109 70.9813 235.063 70.384C234.037 69.768 233.225 68.8813 232.627 67.724C232.03 66.548 231.731 65.1293 231.731 63.468C231.731 60.9853 232.357 59.072 233.607 57.728C234.858 56.384 236.557 55.712 238.703 55.712C240.066 55.712 241.261 56.02 242.287 56.636C243.333 57.2333 244.145 58.1107 244.723 59.268C245.321 60.4067 245.619 61.8067 245.619 63.468ZM234.279 63.468C234.279 65.2413 234.625 66.6507 235.315 67.696C236.025 68.7227 237.145 69.236 238.675 69.236C240.187 69.236 241.298 68.7227 242.007 67.696C242.717 66.6507 243.071 65.2413 243.071 63.468C243.071 61.6947 242.717 60.304 242.007 59.296C241.298 58.288 240.178 57.784 238.647 57.784C237.117 57.784 236.006 58.288 235.315 59.296C234.625 60.304 234.279 61.6947 234.279 63.468ZM248.741 61.984C248.741 58.6987 249.235 56.1413 250.225 54.312C251.214 52.464 252.81 51.3067 255.013 50.84C256.226 50.5787 257.411 50.3453 258.569 50.14C259.726 49.9347 260.809 49.748 261.817 49.58L262.237 51.736C261.583 51.8293 260.846 51.9507 260.025 52.1C259.203 52.2307 258.391 52.3707 257.589 52.52C256.786 52.6507 256.095 52.7813 255.517 52.912C254.303 53.1733 253.342 53.808 252.633 54.816C251.923 55.8053 251.522 57.3547 251.429 59.464H251.597C251.858 59.1093 252.213 58.7453 252.661 58.372C253.127 57.9987 253.678 57.6813 254.313 57.42C254.966 57.1587 255.703 57.028 256.525 57.028C258.466 57.028 259.931 57.6533 260.921 58.904C261.91 60.1547 262.405 61.7787 262.405 63.776C262.405 65.4373 262.115 66.828 261.537 67.948C260.958 69.068 260.155 69.908 259.129 70.468C258.102 71.0093 256.907 71.28 255.545 71.28C253.473 71.28 251.821 70.4867 250.589 68.9C249.357 67.3133 248.741 65.008 248.741 61.984ZM255.741 69.236C256.954 69.236 257.934 68.844 258.681 68.06C259.427 67.276 259.801 65.932 259.801 64.028C259.801 62.4973 259.511 61.2933 258.933 60.416C258.373 59.52 257.439 59.072 256.133 59.072C255.311 59.072 254.565 59.2587 253.893 59.632C253.221 59.9867 252.661 60.3973 252.213 60.864C251.765 61.3307 251.447 61.7227 251.261 62.04C251.261 62.9547 251.326 63.8413 251.457 64.7C251.587 65.5587 251.811 66.3333 252.129 67.024C252.465 67.696 252.922 68.2373 253.501 68.648C254.098 69.04 254.845 69.236 255.741 69.236ZM273.426 55.712C275.274 55.712 276.758 56.356 277.878 57.644C279.017 58.932 279.586 60.8733 279.586 63.468C279.586 66.0253 279.017 67.9667 277.878 69.292C276.758 70.6173 275.265 71.28 273.398 71.28C272.241 71.28 271.28 71.0653 270.514 70.636C269.768 70.188 269.18 69.6747 268.75 69.096H268.582C268.62 69.4133 268.657 69.8147 268.694 70.3C268.732 70.7853 268.75 71.2053 268.75 71.56V77.72H266.286V55.992H268.302L268.638 58.036H268.75C269.198 57.3827 269.786 56.832 270.514 56.384C271.242 55.936 272.213 55.712 273.426 55.712ZM272.978 57.784C271.448 57.784 270.365 58.2133 269.73 59.072C269.114 59.9307 268.788 61.2373 268.75 62.992V63.468C268.75 65.316 269.049 66.744 269.646 67.752C270.262 68.7413 271.392 69.236 273.034 69.236C273.949 69.236 274.696 68.984 275.274 68.48C275.872 67.976 276.31 67.2947 276.59 66.436C276.889 65.5587 277.038 64.56 277.038 63.44C277.038 61.7227 276.702 60.3507 276.03 59.324C275.377 58.2973 274.36 57.784 272.978 57.784ZM289.197 55.74C291.026 55.74 292.379 56.1413 293.257 56.944C294.134 57.7467 294.573 59.0253 294.573 60.78V71H292.781L292.305 68.872H292.193C291.539 69.6933 290.849 70.3 290.121 70.692C289.411 71.084 288.422 71.28 287.153 71.28C285.79 71.28 284.661 70.9253 283.765 70.216C282.869 69.488 282.421 68.3587 282.421 66.828C282.421 65.3347 283.009 64.1867 284.185 63.384C285.361 62.5627 287.171 62.1147 289.617 62.04L292.165 61.956V61.06C292.165 59.8093 291.894 58.9413 291.353 58.456C290.811 57.9707 290.046 57.728 289.057 57.728C288.273 57.728 287.526 57.8493 286.817 58.092C286.107 58.316 285.445 58.5773 284.829 58.876L284.073 57.028C284.726 56.6733 285.501 56.3747 286.397 56.132C287.293 55.8707 288.226 55.74 289.197 55.74ZM292.137 63.664L289.925 63.748C288.058 63.8227 286.761 64.1213 286.033 64.644C285.323 65.1667 284.969 65.904 284.969 66.856C284.969 67.696 285.221 68.312 285.725 68.704C286.247 69.096 286.91 69.292 287.713 69.292C288.982 69.292 290.037 68.9467 290.877 68.256C291.717 67.5467 292.137 66.464 292.137 65.008V63.664ZM298.424 61.984C298.424 58.6987 298.919 56.1413 299.908 54.312C300.897 52.464 302.493 51.3067 304.696 50.84C305.909 50.5787 307.095 50.3453 308.252 50.14C309.409 49.9347 310.492 49.748 311.5 49.58L311.92 51.736C311.267 51.8293 310.529 51.9507 309.708 52.1C308.887 52.2307 308.075 52.3707 307.272 52.52C306.469 52.6507 305.779 52.7813 305.2 52.912C303.987 53.1733 303.025 53.808 302.316 54.816C301.607 55.8053 301.205 57.3547 301.112 59.464H301.28C301.541 59.1093 301.896 58.7453 302.344 58.372C302.811 57.9987 303.361 57.6813 303.996 57.42C304.649 57.1587 305.387 57.028 306.208 57.028C308.149 57.028 309.615 57.6533 310.604 58.904C311.593 60.1547 312.088 61.7787 312.088 63.776C312.088 65.4373 311.799 66.828 311.22 67.948C310.641 69.068 309.839 69.908 308.812 70.468C307.785 71.0093 306.591 71.28 305.228 71.28C303.156 71.28 301.504 70.4867 300.272 68.9C299.04 67.3133 298.424 65.008 298.424 61.984ZM305.424 69.236C306.637 69.236 307.617 68.844 308.364 68.06C309.111 67.276 309.484 65.932 309.484 64.028C309.484 62.4973 309.195 61.2933 308.616 60.416C308.056 59.52 307.123 59.072 305.816 59.072C304.995 59.072 304.248 59.2587 303.576 59.632C302.904 59.9867 302.344 60.3973 301.896 60.864C301.448 61.3307 301.131 61.7227 300.944 62.04C300.944 62.9547 301.009 63.8413 301.14 64.7C301.271 65.5587 301.495 66.3333 301.812 67.024C302.148 67.696 302.605 68.2373 303.184 68.648C303.781 69.04 304.528 69.236 305.424 69.236ZM329.018 63.468C329.018 65.9507 328.383 67.8733 327.114 69.236C325.863 70.5987 324.165 71.28 322.018 71.28C320.693 71.28 319.507 70.9813 318.462 70.384C317.435 69.768 316.623 68.8813 316.026 67.724C315.429 66.548 315.13 65.1293 315.13 63.468C315.13 60.9853 315.755 59.072 317.006 57.728C318.257 56.384 319.955 55.712 322.102 55.712C323.465 55.712 324.659 56.02 325.686 56.636C326.731 57.2333 327.543 58.1107 328.122 59.268C328.719 60.4067 329.018 61.8067 329.018 63.468ZM317.678 63.468C317.678 65.2413 318.023 66.6507 318.714 67.696C319.423 68.7227 320.543 69.236 322.074 69.236C323.586 69.236 324.697 68.7227 325.406 67.696C326.115 66.6507 326.47 65.2413 326.47 63.468C326.47 61.6947 326.115 60.304 325.406 59.296C324.697 58.288 323.577 57.784 322.046 57.784C320.515 57.784 319.405 58.288 318.714 59.296C318.023 60.304 317.678 61.6947 317.678 63.468ZM343.01 58.064H338.11V71H335.674V58.064H330.83V55.992H343.01V58.064ZM354.842 55.992H357.53L351.118 63.216L358.062 71H355.206L348.43 63.384V71H345.966V55.992H348.43V63.272L354.842 55.992ZM358.434 55.992H361.066L364.314 64.532C364.594 65.2787 364.846 65.9973 365.07 66.688C365.294 67.36 365.462 68.004 365.574 68.62H365.686C365.798 68.1533 365.976 67.5467 366.218 66.8C366.461 66.0347 366.713 65.2693 366.974 64.504L370.026 55.992H372.686L366.218 73.072C365.696 74.4907 365.014 75.62 364.174 76.46C363.353 77.3 362.214 77.72 360.758 77.72C360.31 77.72 359.918 77.692 359.582 77.636C359.246 77.5987 358.957 77.552 358.714 77.496V75.536C358.92 75.5733 359.162 75.6107 359.442 75.648C359.741 75.6853 360.049 75.704 360.366 75.704C361.225 75.704 361.916 75.4613 362.438 74.976C362.98 74.4907 363.4 73.8467 363.698 73.044L364.482 71.056L358.434 55.992Z" fill="white"/>
<defs>
<filter id="filter0_d" x="0" y="0" width="474" height="144" filterUnits="userSpaceOnUse" color-interpolation-filters="sRGB">
<feFlood flood-opacity="0" result="BackgroundImageFix"/>
<feColorMatrix in="SourceAlpha" type="matrix" values="0 0 0 0 0 0 0 0 0 0 0 0 0 0 0 0 0 0 127 0"/>
<feOffset dy="10"/>
<feGaussianBlur stdDeviation="6"/>
<feColorMatrix type="matrix" values="0 0 0 0 1 0 0 0 0 0.313726 0 0 0 0 0.0196078 0 0 0 0.35 0"/>
<feBlend mode="normal" in2="BackgroundImageFix" result="effect1_dropShadow"/>
<feBlend mode="normal" in="SourceGraphic" in2="effect1_dropShadow" result="shape"/>
</filter>
<linearGradient id="paint0_linear" x1="12" y1="2" x2="462" y2="122" gradientUnits="userSpaceOnUse">
<stop stop-color="#FF9B04"/>
<stop offset="1" stop-color="#FF0000" stop-opacity="0.5"/>
</linearGradient>
</defs>
</svg>
